<svg xmlns="http://www.w3.org/2000/svg" width="66mm" height="66mm" viewBox="0 0 66 66"><g style="fill:#000;fill-opacity:1;stroke:none"><path d="M1.722.272C.92.272.264.928.264 1.728S.92 3.185 1.722 3.185s1.457-.656 1.457-1.457c0-.8-.656-1.456-1.457-1.456m0 .532a.92.92 0 0 1 .926.924.92.92 0 0 1-.926.925.92.92 0 0 1-.926-.925.92.92 0 0 1 .926-.924" style="fill:#000;fill-opacity:1;stroke:none;stroke-width:.264583" transform="translate(24.288 54.11)scale(.54399)"/><path d="M2.596 2.39a.265.265 0 0 0-.132.454l1.058 1.059a.266.266 0 1 0 .372-.38l-1.058-1.06a.27.27 0 0 0-.24-.073" style="fill:#000;fill-opacity:1;stroke:none;stroke-width:.264583" transform="translate(24.288 54.11)scale(.54399)"/></g><path d="M10 53.859c-.776 0-1.41.633-1.41 1.41 0 .775.634 1.408 1.41 1.408a1.41 1.41 0 0 0 1.409-1.409A1.41 1.41 0 0 0 10 53.859m0 .266c.633 0 1.143.51 1.143 1.143 0 .634-.51 1.144-1.143 1.144-.634 0-1.144-.51-1.144-1.144s.51-1.143 1.144-1.143m4.459-.266c-.777 0-1.41.633-1.41 1.41a1.41 1.41 0 0 0 1.41 1.408c.776 0 1.409-.633 1.409-1.409s-.633-1.409-1.41-1.409m0 .266c.634 0 1.144.51 1.144 1.143 0 .634-.51 1.144-1.143 1.144-.634 0-1.144-.51-1.144-1.144s.51-1.143 1.144-1.143m4.459-.266a1.41 1.41 0 0 0-1.41 1.41 1.41 1.41 0 0 0 1.41 1.408 1.41 1.41 0 0 0 1.409-1.409c0-.776-.633-1.409-1.41-1.409m0 .266c.634 0 1.144.51 1.144 1.143 0 .634-.51 1.144-1.143 1.144a1.144 1.144 0 1 1 0-2.288" style="color:#000;font-style:normal;font-variant:normal;font-weight:400;font-stretch:normal;font-size:medium;line-height:normal;font-family:sans-serif;font-variant-ligatures:normal;font-variant-position:normal;font-variant-caps:normal;font-variant-numeric:normal;font-variant-alternates:normal;font-feature-settings:normal;text-indent:0;text-align:start;text-decoration:none;text-decoration-line:none;text-decoration-style:solid;text-decoration-color:#000;letter-spacing:normal;word-spacing:normal;text-transform:none;writing-mode:lr-tb;direction:ltr;text-orientation:mixed;dominant-baseline:auto;baseline-shift:baseline;text-anchor:start;white-space:normal;shape-padding:0;clip-rule:nonzero;display:inline;overflow:visible;visibility:visible;isolation:auto;mix-blend-mode:normal;color-interpolation:sRGB;color-interpolation-filters:linearRGB;solid-color:#000;solid-opacity:1;fill:#000;fill-opacity:1;fill-rule:nonzero;stroke:none;stroke-width:.99914;stroke-linecap:butt;stroke-linejoin:round;stroke-miterlimit:4;stroke-dasharray:none;stroke-dashoffset:0;stroke-opacity:1;color-rendering:auto;image-rendering:auto;shape-rendering:auto;text-rendering:auto"/><g style="fill:#000;fill-opacity:1;stroke:none"><path d="m5.337 8.247.748.749L8.731 6.35 6.085 3.704l-.748.749L6.705 5.82H1.588v1.058h5.117zm4.717-6.66H2.646c-.585 0-1.058.474-1.058 1.059v2.117h1.058V2.646h7.408v7.408H2.646V7.937H1.588v2.117c0 .585.473 1.058 1.058 1.058h7.408c.585 0 1.058-.473 1.058-1.058V2.646c0-.585-.473-1.058-1.058-1.058" style="fill:#000;fill-opacity:1;stroke:none;stroke-width:.264583" transform="translate(9.156 54.393)scale(.13446)"/></g><g style="fill:#000;fill-opacity:1;stroke:none"><path d="M9.525 4.233h-.53V3.175a2.647 2.647 0 0 0-5.29 0v1.058h-.53c-.585 0-1.058.474-1.058 1.059v5.291c0 .585.473 1.059 1.058 1.059h6.35c.585 0 1.058-.474 1.058-1.059V5.292c0-.585-.473-1.059-1.058-1.059M6.35 1.535c.905 0 1.64.735 1.64 1.64v1.058H4.763V3.175H4.71c0-.905.735-1.64 1.64-1.64m3.175 9.048h-6.35V5.292h6.35zM6.35 8.996a1.058 1.058 0 1 0 0-2.116 1.058 1.058 0 0 0 0 2.116" style="fill:#000;fill-opacity:1;stroke:none;stroke-width:.264583" transform="translate(13.52 54.285)scale(.14797)"/></g><path d="m18.85 54.421.135-.023v.736h-.134z" style="color:#000;display:inline;overflow:visible;visibility:visible;fill:#000;fill-opacity:1;stroke:none;stroke-width:.200754;marker:none"/><path d="M18.55 54.631a.736.736 0 1 0 .736 0l-.067.116a.601.601 0 1 1-.602 0z" style="color:#000;font-style:normal;font-variant:normal;font-weight:400;font-stretch:normal;font-size:medium;line-height:normal;font-family:sans-serif;font-variant-ligatures:normal;font-variant-position:normal;font-variant-caps:normal;font-variant-numeric:normal;font-variant-alternates:normal;font-feature-settings:normal;text-indent:0;text-align:start;text-decoration:none;text-decoration-line:none;text-decoration-style:solid;text-decoration-color:#000;letter-spacing:normal;word-spacing:normal;text-transform:none;writing-mode:lr-tb;direction:ltr;text-orientation:mixed;dominant-baseline:auto;baseline-shift:baseline;text-anchor:start;white-space:normal;shape-padding:0;clip-rule:nonzero;display:inline;overflow:visible;visibility:visible;isolation:auto;mix-blend-mode:normal;color-interpolation:sRGB;color-interpolation-filters:linearRGB;solid-color:#000;solid-opacity:1;fill:#000;fill-opacity:1;fill-rule:nonzero;stroke:none;stroke-width:.0843061;stroke-linecap:butt;stroke-linejoin:round;stroke-miterlimit:4;stroke-dasharray:none;stroke-dashoffset:0;stroke-opacity:1;marker:none;color-rendering:auto;image-rendering:auto;shape-rendering:auto;text-rendering:auto"/><g style="fill:#000;fill-opacity:1;stroke:none"><path d="m7.023 251.42-.002.793 3.97.015.001-.792zm5.557.021-.002.793 4.762.02.004-.793zm6.35.026-.002.793 1.033.004.002-.793zm-11.852 4.847-.004.795 3.969.016.004-.793zm5.557.024-.004.793 4.762.02.003-.796zm6.35.025-.005.793 1.034.004.004-.793zM7.14 261.041l-.004.795 3.968.016.004-.795zm5.556.022-.004.794 4.764.02.002-.795zm6.35.025-.004.795 1.033.004.004-.795zm-11.79 5.082-.003.795 3.969.015.004-.794zm5.557.023-.003.793 4.761.02.004-.795zm6.35.026-.004.793 1.033.004.004-.793zm-11.969 4.435-.004.793 3.97.016.003-.793zm5.555.022-.002.795 4.762.017.004-.793zm6.352.025-.004.795 1.033.004.002-.795zm-11.791 4.33-.002.793 3.968.016.002-.793zm5.556.022-.004.793 4.764.02.002-.794zm6.35.025-.002.793 1.031.004.004-.793zm-11.9 4.436-.005.795 3.97.015.003-.795zm5.554.021-.002.795 4.762.02.004-.795zm6.352.026-.004.795 1.033.004.002-.793zM7.316 246.649l-.004.792 3.97.018.003-.795zm5.555.021-.002.795 4.762.02.004-.796zm6.352.025-.004.795 1.033.004.002-.795zM1.806 268.347a.124.124 0 0 0-.124.124v3.39c0 .068.055.124.124.124h3.08a.124.124 0 0 0 .125-.125v-3.39a.124.124 0 0 0-.124-.123zm0 4.063a.124.124 0 0 0-.124.124v3.39c0 .068.055.124.124.124h3.08a.124.124 0 0 0 .125-.124v-3.39a.124.124 0 0 0-.124-.124Zm0 4.379a.124.124 0 0 0-.124.124v3.39c0 .068.055.124.124.124h3.08a.124.124 0 0 0 .125-.125v-3.39a.124.124 0 0 0-.124-.123zm0-26.12a.124.124 0 0 0-.124.124v3.39c0 .068.055.124.124.124h3.08a.124.124 0 0 0 .125-.125v-3.39a.124.124 0 0 0-.124-.123zm0 4.512a.124.124 0 0 0-.124.124v3.39c0 .068.055.124.124.124h3.08a.124.124 0 0 0 .125-.124v-3.39a.124.124 0 0 0-.124-.124zm0 4.437a.124.124 0 0 0-.124.123v3.39c0 .068.055.123.124.123h3.08a.124.124 0 0 0 .125-.124v-3.39a.124.124 0 0 0-.124-.122zm0 4.403a.124.124 0 0 0-.124.124v3.39c0 .068.055.124.124.124h3.08a.124.124 0 0 0 .125-.125v-3.39a.124.124 0 0 0-.124-.123zm0-17.943a.124.124 0 0 0-.124.124v3.39c0 .068.055.124.124.124h3.08a.124.124 0 0 0 .125-.124v-3.39a.124.124 0 0 0-.124-.124z" style="color:#000;font-style:normal;font-variant:normal;font-weight:400;font-stretch:normal;font-size:medium;line-height:normal;font-family:sans-serif;font-variant-ligatures:normal;font-variant-position:normal;font-variant-caps:normal;font-variant-numeric:normal;font-variant-alternates:normal;font-feature-settings:normal;text-indent:0;text-align:start;text-decoration:none;text-decoration-line:none;text-decoration-style:solid;text-decoration-color:#000;letter-spacing:normal;word-spacing:normal;text-transform:none;writing-mode:lr-tb;direction:ltr;text-orientation:mixed;dominant-baseline:auto;baseline-shift:baseline;text-anchor:start;white-space:normal;shape-padding:0;clip-rule:nonzero;display:inline;overflow:visible;visibility:visible;opacity:1;isolation:auto;mix-blend-mode:normal;color-interpolation:sRGB;color-interpolation-filters:linearRGB;solid-color:#000;solid-opacity:1;fill:#000;fill-opacity:1;fill-rule:evenodd;stroke:none;stroke-linecap:butt;stroke-linejoin:miter;stroke-miterlimit:4;stroke-dasharray:4.7625,1.5875;stroke-dashoffset:.79375;stroke-opacity:1;color-rendering:auto;image-rendering:auto;shape-rendering:auto;text-rendering:auto" transform="matrix(.8319 0 0 .75397 22.706 -174.647)"/></g><g style="fill:#000;fill-opacity:1;stroke:none"><path d="m1.04 284.71 17.344.051" style="color:#000;font-style:normal;font-variant:normal;font-weight:400;font-stretch:normal;font-size:medium;line-height:normal;font-family:sans-serif;font-variant-ligatures:normal;font-variant-position:normal;font-variant-caps:normal;font-variant-numeric:normal;font-variant-alternates:normal;font-feature-settings:normal;text-indent:0;text-align:start;text-decoration:none;text-decoration-line:none;text-decoration-style:solid;text-decoration-color:#000;letter-spacing:normal;word-spacing:normal;text-transform:none;writing-mode:lr-tb;direction:ltr;text-orientation:mixed;dominant-baseline:auto;baseline-shift:baseline;text-anchor:start;white-space:normal;shape-padding:0;clip-rule:nonzero;display:inline;overflow:visible;visibility:visible;isolation:auto;mix-blend-mode:normal;color-interpolation:sRGB;color-interpolation-filters:linearRGB;solid-color:#000;solid-opacity:1;fill:#000;fill-opacity:1;fill-rule:evenodd;stroke:none;stroke-width:.260467;stroke-linecap:butt;stroke-linejoin:miter;stroke-miterlimit:4;stroke-dasharray:none;stroke-dashoffset:0;stroke-opacity:1;color-rendering:auto;image-rendering:auto;shape-rendering:auto;text-rendering:auto" transform="matrix(2.1271 0 0 .99912 20.113 -231.798)"/><path d="M1.041 284.58v.26l17.344.05v-.26z" style="color:#000;font-style:normal;font-variant:normal;font-weight:400;font-stretch:normal;font-size:medium;line-height:normal;font-family:sans-serif;font-variant-ligatures:normal;font-variant-position:normal;font-variant-caps:normal;font-variant-numeric:normal;font-variant-alternates:normal;font-feature-settings:normal;text-indent:0;text-align:start;text-decoration:none;text-decoration-line:none;text-decoration-style:solid;text-decoration-color:#000;letter-spacing:normal;word-spacing:normal;text-transform:none;writing-mode:lr-tb;direction:ltr;text-orientation:mixed;dominant-baseline:auto;baseline-shift:baseline;text-anchor:start;white-space:normal;shape-padding:0;clip-rule:nonzero;display:inline;overflow:visible;visibility:visible;isolation:auto;mix-blend-mode:normal;color-interpolation:sRGB;color-interpolation-filters:linearRGB;solid-color:#000;solid-opacity:1;fill:#000;fill-opacity:1;fill-rule:evenodd;stroke:none;stroke-linecap:butt;stroke-linejoin:miter;stroke-miterlimit:4;stroke-dasharray:none;stroke-dashoffset:0;stroke-opacity:1;color-rendering:auto;image-rendering:auto;shape-rendering:auto;text-rendering:auto" transform="matrix(2.1271 0 0 .99912 20.113 -231.798)"/></g><path d="M55.8 54.355s-.755.375-1.417.912v.001a8.6 8.6 0 0 0 1.417.913v-.002h1.618v-1.823zm.254.319.46.46.463-.46.143.144-.462.46.462.46-.143.146-.462-.462-.461.462-.143-.144.46-.46-.46-.462z" style="color:#000;display:inline;overflow:visible;visibility:visible;fill:#000;fill-opacity:1;fill-rule:nonzero;stroke:none;stroke-width:.033746;marker:none"/><path d="m46.214 37.393-.002.203 10.606.037v-.203zm.095 3.694-.002.202 10.606.037v-.202zm-.052 3.23v.205l10.604.037.002-.205zm-4.417-1.853a.095.095 0 0 0-.095.096V45c0 .054.043.097.096.097h2.525a.095.095 0 0 0 .096-.096v-2.44a.095.095 0 0 0-.096-.097zm0-6.287a.095.095 0 0 0-.095.094v2.443c0 .052.043.094.096.094h2.525a.095.095 0 0 0 .096-.094V36.27a.095.095 0 0 0-.096-.094zm0 3.17a.095.095 0 0 0-.095.097v2.44c0 .054.043.097.096.097h2.525a.095.095 0 0 0 .096-.096v-2.441a.095.095 0 0 0-.096-.096zm4.277-24.751v.192l10.604.036.002-.19zm.045 3.527v.19l10.604.04v-.193zm.052 3.406-.002.19 10.605.036.002-.19zm.094 3.695v.19l10.605.038v-.192zm-.051 3.23v.19l10.605.037v-.19zm.096 3.152-.002.19 10.605.039.002-.192zm.003 3.23v.19l10.605.038v-.19zm0-23.676v.19l10.605.037v-.19zM41.842 26.6c-.057 0-.102.04-.102.09v2.44c0 .05.045.09.102.09h2.525c.056 0 .102-.04.102-.09v-2.44c0-.05-.046-.09-.102-.09zm0 2.929c-.057 0-.102.04-.102.088v2.442c0 .05.045.09.102.09h2.525c.056 0 .102-.04.102-.09v-2.442c0-.05-.046-.09-.102-.09zm0 3.154c-.057 0-.102.04-.102.09v2.44c0 .05.045.09.102.09h2.525c.056 0 .102-.04.102-.09v-2.441c0-.05-.046-.09-.102-.09zm0-18.817c-.057 0-.102.04-.102.09v2.44c0 .05.045.09.102.09h2.525c.056 0 .102-.04.102-.09v-2.44c0-.05-.046-.09-.102-.09zm0 3.25c-.057 0-.102.04-.102.09v2.44c0 .05.045.09.102.09h2.525c.056 0 .102-.04.102-.09v-2.44c0-.05-.046-.09-.102-.09zm0 3.197c-.056 0-.101.04-.102.088v2.442c0 .05.045.09.102.09h2.525c.056 0 .102-.04.102-.09V20.4c0-.05-.046-.09-.102-.09zm0 3.172c-.057 0-.102.04-.102.09v2.44c0 .05.045.09.102.09h2.525c.056 0 .102-.04.102-.09v-2.441c0-.05-.046-.09-.102-.09zm0-12.926c-.057 0-.102.04-.102.09v2.44c0 .05.045.09.102.09h2.525c.056 0 .102-.04.102-.09v-2.441c0-.05-.046-.09-.102-.09z" style="color:#000;font-style:normal;font-variant:normal;font-weight:400;font-stretch:normal;font-size:medium;line-height:normal;font-family:sans-serif;font-variant-ligatures:normal;font-variant-position:normal;font-variant-caps:normal;font-variant-numeric:normal;font-variant-alternates:normal;font-feature-settings:normal;text-indent:0;text-align:start;text-decoration:none;text-decoration-line:none;text-decoration-style:solid;text-decoration-color:#000;letter-spacing:normal;word-spacing:normal;text-transform:none;writing-mode:lr-tb;direction:ltr;text-orientation:mixed;dominant-baseline:auto;baseline-shift:baseline;text-anchor:start;white-space:normal;shape-padding:0;clip-rule:nonzero;display:inline;overflow:visible;visibility:visible;isolation:auto;mix-blend-mode:normal;color-interpolation:sRGB;color-interpolation-filters:linearRGB;solid-color:#000;solid-opacity:1;fill:#000;fill-opacity:1;fill-rule:evenodd;stroke:none;stroke-width:.99914;stroke-linecap:butt;stroke-linejoin:miter;stroke-miterlimit:4;stroke-dasharray:none;stroke-dashoffset:.264583;stroke-opacity:1;color-rendering:auto;image-rendering:auto;shape-rendering:auto;text-rendering:auto"/><path d="M16.132 12.685a5 5 0 0 1-.522.63c-.318.315-.747.69-.747.69s-.453-.369-.75-.689a5 5 0 0 1-.522-.63l-.022.008q-.607.23-1.069.61v1.187h4.722v-1.187a3.8 3.8 0 0 0-1.063-.61z" style="font-style:normal;font-variant:normal;font-weight:400;font-stretch:normal;font-size:15.003px;line-height:125%;font-family:Ubuntu;-inkscape-font-specification:Ubuntu;text-align:center;letter-spacing:0;word-spacing:0;writing-mode:lr-tb;text-anchor:middle;fill:#000;fill-opacity:1;stroke:none;stroke-width:.0605261;stroke-opacity:1"/><path d="M14.86 9.773c-.373 0-.734.158-.998.435a1.54 1.54 0 0 0-.415 1.053 1.4 1.4 0 0 0 .087.504c.185.46.464.818.719 1.095q.108.12.231.241h.744q.125-.12.243-.242h-.002c.253-.276.534-.634.72-1.094a1.3 1.3 0 0 0 .086-.502v-.002a1.54 1.54 0 0 0-.415-1.053 1.38 1.38 0 0 0-.997-.435Z" style="font-style:normal;font-variant:normal;font-weight:400;font-stretch:normal;font-size:121.63px;line-height:125%;font-family:Ubuntu;-inkscape-font-specification:Ubuntu;text-align:center;letter-spacing:0;word-spacing:0;writing-mode:lr-tb;text-anchor:middle;fill:#000;fill-opacity:1;stroke:none;stroke-width:.0605261;stroke-opacity:1"/><path d="m9.56 16.127-.004.263 10.606.053.004-.263z" style="color:#000;font-style:normal;font-variant:normal;font-weight:400;font-stretch:normal;font-size:medium;line-height:normal;font-family:sans-serif;font-variant-ligatures:normal;font-variant-position:normal;font-variant-caps:normal;font-variant-numeric:normal;font-variant-alternates:normal;font-feature-settings:normal;text-indent:0;text-align:start;text-decoration:none;text-decoration-line:none;text-decoration-style:solid;text-decoration-color:#000;letter-spacing:normal;word-spacing:normal;text-transform:none;writing-mode:lr-tb;direction:ltr;text-orientation:mixed;dominant-baseline:auto;baseline-shift:baseline;text-anchor:start;white-space:normal;shape-padding:0;clip-rule:nonzero;display:inline;overflow:visible;visibility:visible;isolation:auto;mix-blend-mode:normal;color-interpolation:sRGB;color-interpolation-filters:linearRGB;solid-color:#000;solid-opacity:1;fill:#000;fill-opacity:1;fill-rule:evenodd;stroke:none;stroke-width:1.34967;stroke-linecap:butt;stroke-linejoin:miter;stroke-miterlimit:4;stroke-dasharray:8.57048,8.57048;stroke-dashoffset:.526152;stroke-opacity:1;color-rendering:auto;image-rendering:auto;shape-rendering:auto;text-rendering:auto"/><path d="M10.377 20.823v-.318h-.308z" style="color:#000;display:inline;overflow:visible;visibility:visible;fill:#000;fill-opacity:1;fill-rule:nonzero;stroke:none;stroke-width:1.22418;marker:none"/><path d="m9.556 20.42-.82.77v.996h.82v-.77l.035-.012q.027-.007.057-.012.033-.006.068-.01l.069-.005a.4.4 0 0 1 .135.022.2.2 0 0 1 .088.065q.033.046.046.121.015.075.015.18v.42h.308v-.995z" style="font-style:normal;font-variant:normal;font-weight:400;font-stretch:normal;font-size:15px;line-height:125%;font-family:Ubuntu;-inkscape-font-specification:Ubuntu;text-align:center;letter-spacing:0;word-spacing:0;writing-mode:lr-tb;text-anchor:middle;fill:#000;fill-opacity:1;stroke:none;stroke-width:.0255037"/><path d="m8.584 21.387-.114-.12 1.086-1.123 1.087 1.123-.114.12-.973-.93z" style="color:#000;font-style:normal;font-variant:normal;font-weight:400;font-stretch:normal;line-height:normal;font-family:sans-serif;-inkscape-font-specification:sans-serif;text-indent:0;text-align:start;text-decoration:none;text-decoration-line:none;letter-spacing:normal;word-spacing:normal;text-transform:none;writing-mode:lr-tb;direction:ltr;baseline-shift:baseline;text-anchor:start;clip-rule:nonzero;display:inline;overflow:visible;visibility:visible;color-interpolation:sRGB;color-interpolation-filters:linearRGB;fill:#000;fill-opacity:1;stroke:none;stroke-width:.153022;marker:none;color-rendering:auto;image-rendering:auto;shape-rendering:auto;text-rendering:auto"/><path d="m11.672 21.007-.003.263 8.132.053.006-.264z" style="color:#000;font-style:normal;font-variant:normal;font-weight:400;font-stretch:normal;font-size:medium;line-height:normal;font-family:sans-serif;font-variant-ligatures:normal;font-variant-position:normal;font-variant-caps:normal;font-variant-numeric:normal;font-variant-alternates:normal;font-feature-settings:normal;text-indent:0;text-align:start;text-decoration:none;text-decoration-line:none;text-decoration-style:solid;text-decoration-color:#000;letter-spacing:normal;word-spacing:normal;text-transform:none;writing-mode:lr-tb;direction:ltr;text-orientation:mixed;dominant-baseline:auto;baseline-shift:baseline;text-anchor:start;white-space:normal;shape-padding:0;clip-rule:nonzero;display:inline;overflow:visible;visibility:visible;isolation:auto;mix-blend-mode:normal;color-interpolation:sRGB;color-interpolation-filters:linearRGB;solid-color:#000;solid-opacity:1;fill:#000;fill-opacity:1;fill-rule:evenodd;stroke:none;stroke-width:1.25483;stroke-linecap:butt;stroke-linejoin:miter;stroke-miterlimit:4;stroke-dasharray:7.96819,7.96819;stroke-dashoffset:.518464;stroke-opacity:1;color-rendering:auto;image-rendering:auto;shape-rendering:auto;text-rendering:auto"/><path d="M8.562 23.643v1.99h1.453l.536-.537v-1.453zm.153.153h1.683v1.224h-.46v.46H8.715Z" style="color:#000;display:inline;overflow:visible;visibility:visible;fill:#000;fill-opacity:1;fill-rule:nonzero;stroke:none;stroke-width:.102014;marker:none"/><path d="M9.02 24.102h1.07v.153H9.02Zm0 .306h1.07v.153H9.02Zm0 .306h.613v.153H9.02z" style="color:#000;display:inline;overflow:visible;visibility:visible;fill:#000;fill-opacity:1;fill-rule:nonzero;stroke:none;stroke-width:.153022;marker:none"/><path d="m11.672 24.484-.003.265 8.833.041.003-.265z" style="color:#000;font-style:normal;font-variant:normal;font-weight:400;font-stretch:normal;font-size:medium;line-height:normal;font-family:sans-serif;font-variant-ligatures:normal;font-variant-position:normal;font-variant-caps:normal;font-variant-numeric:normal;font-variant-alternates:normal;font-feature-settings:normal;text-indent:0;text-align:start;text-decoration:none;text-decoration-line:none;text-decoration-style:solid;text-decoration-color:#000;letter-spacing:normal;word-spacing:normal;text-transform:none;writing-mode:lr-tb;direction:ltr;text-orientation:mixed;dominant-baseline:auto;baseline-shift:baseline;text-anchor:start;white-space:normal;shape-padding:0;clip-rule:nonzero;display:inline;overflow:visible;visibility:visible;isolation:auto;mix-blend-mode:normal;color-interpolation:sRGB;color-interpolation-filters:linearRGB;solid-color:#000;solid-opacity:1;fill:#000;fill-opacity:1;fill-rule:evenodd;stroke:none;stroke-width:1.21166;stroke-linecap:butt;stroke-linejoin:miter;stroke-miterlimit:4;stroke-dasharray:7.69408,7.69408;stroke-dashoffset:.41014;stroke-opacity:1;color-rendering:auto;image-rendering:auto;shape-rendering:auto;text-rendering:auto"/><path d="M9.938 35.118a.233.233 0 1 0 0 .465.233.233 0 0 0 0-.465m-.668.244-.421.808h1.018l-.311-.597-.088.168z" style="color:#000;display:inline;overflow:visible;visibility:visible;fill:#000;fill-opacity:1;fill-rule:nonzero;stroke:none;stroke-width:.146791;marker:none"/><path d="M8.555 34.776v1.907h1.91v-1.908zm.147.146h1.615v1.394H8.702Z" style="color:#000;display:inline;overflow:visible;visibility:visible;fill:#000;fill-opacity:1;fill-rule:nonzero;stroke:none;stroke-width:.0978604;marker:none"/><path d="m11.672 35.576-.003.265 8.833.041.003-.263z" style="color:#000;font-style:normal;font-variant:normal;font-weight:400;font-stretch:normal;font-size:medium;line-height:normal;font-family:sans-serif;font-variant-ligatures:normal;font-variant-position:normal;font-variant-caps:normal;font-variant-numeric:normal;font-variant-alternates:normal;font-feature-settings:normal;text-indent:0;text-align:start;text-decoration:none;text-decoration-line:none;text-decoration-style:solid;text-decoration-color:#000;letter-spacing:normal;word-spacing:normal;text-transform:none;writing-mode:lr-tb;direction:ltr;text-orientation:mixed;dominant-baseline:auto;baseline-shift:baseline;text-anchor:start;white-space:normal;shape-padding:0;clip-rule:nonzero;display:inline;overflow:visible;visibility:visible;isolation:auto;mix-blend-mode:normal;color-interpolation:sRGB;color-interpolation-filters:linearRGB;solid-color:#000;solid-opacity:1;fill:#000;fill-opacity:1;fill-rule:evenodd;stroke:none;stroke-width:1.21265;stroke-linecap:butt;stroke-linejoin:miter;stroke-miterlimit:4;stroke-dasharray:7.70033,7.70033;stroke-dashoffset:.42039;stroke-opacity:1;color-rendering:auto;image-rendering:auto;shape-rendering:auto;text-rendering:auto"/><path d="M9.93 31.312c.263 0 .462.044.462.044v1.413l-.002.034a.5.5 0 0 1-.057.201l-.007.012-.008.011q-.08.11-.277.11c-.23 0-.328-.162-.328-.305v-.022c.008-.118.07-.282.294-.282h.017a.4.4 0 0 1 .092.015h.002l.01.004q.003 0 .005.002l.008.003.007.003h.004q.044.02.083.045v-.768s-.571-.105-.94.128v.991l-.003.034a.44.44 0 0 1-.072.224c-.054.073-.158.11-.287.11-.231 0-.328-.163-.328-.306 0-.117.056-.304.294-.304.09 0 .158.028.22.068l.013.008v-1.244c.246-.182.54-.228.8-.229z" style="display:inline;fill:#000;fill-opacity:1;stroke:none;stroke-width:.0244652"/><path d="m11.672 32.156-.003.264 8.135.053.003-.264z" style="color:#000;font-style:normal;font-variant:normal;font-weight:400;font-stretch:normal;font-size:medium;line-height:normal;font-family:sans-serif;font-variant-ligatures:normal;font-variant-position:normal;font-variant-caps:normal;font-variant-numeric:normal;font-variant-alternates:normal;font-feature-settings:normal;text-indent:0;text-align:start;text-decoration:none;text-decoration-line:none;text-decoration-style:solid;text-decoration-color:#000;letter-spacing:normal;word-spacing:normal;text-transform:none;writing-mode:lr-tb;direction:ltr;text-orientation:mixed;dominant-baseline:auto;baseline-shift:baseline;text-anchor:start;white-space:normal;shape-padding:0;clip-rule:nonzero;display:inline;overflow:visible;visibility:visible;isolation:auto;mix-blend-mode:normal;color-interpolation:sRGB;color-interpolation-filters:linearRGB;solid-color:#000;solid-opacity:1;fill:#000;fill-opacity:1;fill-rule:evenodd;stroke:none;stroke-width:1.18216;stroke-linecap:butt;stroke-linejoin:miter;stroke-miterlimit:4;stroke-dasharray:7.50674,7.50674;stroke-dashoffset:.460848;stroke-opacity:1;color-rendering:auto;image-rendering:auto;shape-rendering:auto;text-rendering:auto"/><path d="M8.777 29.394v.46h2.028v-.46zm1.598.153h.277v.154h-.277z" style="color:#000;display:inline;overflow:visible;visibility:visible;fill:#000;fill-opacity:1;fill-rule:nonzero;stroke:none;stroke-width:.368738;marker:none"/><path d="M9.116 28.011a11 11 0 0 0 .675 1.198h.002q.202-.322.395-.668.149-.269.277-.53z" style="color:#000;display:inline;overflow:visible;visibility:visible;fill:#000;fill-opacity:1;fill-rule:nonzero;stroke:none;stroke-width:.0921844;marker:none"/><path d="M9.515 27.09v1.074h.553V27.09z" style="color:#000;font-style:normal;font-variant:normal;font-weight:400;font-stretch:normal;line-height:normal;font-family:Sans;-inkscape-font-specification:Sans;text-indent:0;text-align:start;text-decoration:none;text-decoration-line:none;letter-spacing:normal;word-spacing:normal;text-transform:none;writing-mode:lr-tb;direction:ltr;baseline-shift:baseline;text-anchor:start;display:inline;overflow:visible;visibility:visible;fill:#000;fill-opacity:1;stroke:none;stroke-width:.122912;marker:none"/><path d="m11.576 28.348-.004.227 9.706.035.003-.226z" style="color:#000;font-style:normal;font-variant:normal;font-weight:400;font-stretch:normal;font-size:medium;line-height:normal;font-family:sans-serif;font-variant-ligatures:normal;font-variant-position:normal;font-variant-caps:normal;font-variant-numeric:normal;font-variant-alternates:normal;font-feature-settings:normal;text-indent:0;text-align:start;text-decoration:none;text-decoration-line:none;text-decoration-style:solid;text-decoration-color:#000;letter-spacing:normal;word-spacing:normal;text-transform:none;writing-mode:lr-tb;direction:ltr;text-orientation:mixed;dominant-baseline:auto;baseline-shift:baseline;text-anchor:start;white-space:normal;shape-padding:0;clip-rule:nonzero;display:inline;overflow:visible;visibility:visible;isolation:auto;mix-blend-mode:normal;color-interpolation:sRGB;color-interpolation-filters:linearRGB;solid-color:#000;solid-opacity:1;fill:#000;fill-opacity:1;fill-rule:evenodd;stroke:none;stroke-width:1.17689;stroke-linecap:butt;stroke-linejoin:miter;stroke-miterlimit:4;stroke-dasharray:7.47329,7.47329;stroke-dashoffset:.400712;stroke-opacity:1;color-rendering:auto;image-rendering:auto;shape-rendering:auto;text-rendering:auto"/><path d="M10.38 39.83a.98.98 0 0 0-1.694-.979.979.979 0 0 0 1.694.98m-.29-.168a.64.64 0 0 1-.878.234.642.642 0 1 1 .642-1.112.64.64 0 0 1 .236.878" style="color:#000;font-style:normal;font-variant:normal;font-weight:400;font-stretch:normal;font-size:medium;line-height:normal;font-family:sans-serif;font-variant-ligatures:normal;font-variant-position:normal;font-variant-caps:normal;font-variant-numeric:normal;font-variant-alternates:normal;font-feature-settings:normal;text-indent:0;text-align:start;text-decoration:none;text-decoration-line:none;text-decoration-style:solid;text-decoration-color:#000;letter-spacing:normal;word-spacing:normal;text-transform:none;writing-mode:lr-tb;direction:ltr;text-orientation:mixed;dominant-baseline:auto;baseline-shift:baseline;text-anchor:start;white-space:normal;shape-padding:0;clip-rule:nonzero;display:inline;overflow:visible;visibility:visible;isolation:auto;mix-blend-mode:normal;color-interpolation:sRGB;color-interpolation-filters:linearRGB;solid-color:#000;solid-opacity:1;fill:#000;fill-opacity:1;fill-rule:nonzero;stroke:none;stroke-width:.105465;stroke-linecap:butt;stroke-linejoin:miter;stroke-miterlimit:4;stroke-dasharray:none;stroke-dashoffset:0;stroke-opacity:1;marker:none;color-rendering:auto;image-rendering:auto;shape-rendering:auto;text-rendering:auto"/><path d="m9.728 38.14-.39.06v.39h.39zm.708.428-.3-.25-.27.32.3.252zm.285.761-.07-.384-.411.073.068.384zm-.271.767.194-.34-.362-.208-.195.338zm-.7.413.366-.136-.142-.392-.367.134zm-.802-.133.368.13.143-.39-.367-.135zm-.528-.618.197.337.362-.209-.196-.338zm-.008-.813-.065.385.41.072.069-.384zm.517-.628-.298.253.268.32.3-.25z" style="color:#000;display:inline;overflow:visible;visibility:visible;fill:#000;fill-opacity:1;fill-rule:nonzero;stroke:none;stroke-width:.0558086;marker:none"/><path d="m11.408 39.172-.004.2 9.874.03.003-.198z" style="color:#000;font-style:normal;font-variant:normal;font-weight:400;font-stretch:normal;font-size:medium;line-height:normal;font-family:sans-serif;font-variant-ligatures:normal;font-variant-position:normal;font-variant-caps:normal;font-variant-numeric:normal;font-variant-alternates:normal;font-feature-settings:normal;text-indent:0;text-align:start;text-decoration:none;text-decoration-line:none;text-decoration-style:solid;text-decoration-color:#000;letter-spacing:normal;word-spacing:normal;text-transform:none;writing-mode:lr-tb;direction:ltr;text-orientation:mixed;dominant-baseline:auto;baseline-shift:baseline;text-anchor:start;white-space:normal;shape-padding:0;clip-rule:nonzero;display:inline;overflow:visible;visibility:visible;isolation:auto;mix-blend-mode:normal;color-interpolation:sRGB;color-interpolation-filters:linearRGB;solid-color:#000;solid-opacity:1;fill:#000;fill-opacity:1;fill-rule:evenodd;stroke:none;stroke-width:1.11251;stroke-linecap:butt;stroke-linejoin:miter;stroke-miterlimit:4;stroke-dasharray:7.06445,7.06445;stroke-dashoffset:.385675;stroke-opacity:1;color-rendering:auto;image-rendering:auto;shape-rendering:auto;text-rendering:auto"/><path d="m9.28 41.966-.008.015a20 20 0 0 0-.378.874l-.053.14h.402l.094-.249c.046-.117.087-.21.124-.299.036.085.072.175.117.292l.096.255h.41l-.056-.138q-.09-.237-.18-.452a15 15 0 0 0-.19-.423l-.008-.015zm-.67 1.114a.229.229 0 1 0 0 .457h1.712a.229.229 0 1 0 0-.457zm0 .114h.999a.115.115 0 1 1 0 .23H8.61a.115.115 0 1 1 0-.23m-.004.43-.106.302-.014.037h.422l.087-.24.036-.1zm1.278 0q.016.05.035.098l.08.226.006.015h.445l-.015-.037-.11-.303h-.004z" style="font-style:normal;font-variant:normal;font-weight:500;font-stretch:normal;font-size:12.0041px;line-height:125%;font-family:Ubuntu;-inkscape-font-specification:&quot;Ubuntu Medium&quot;;text-align:start;letter-spacing:0;word-spacing:0;writing-mode:lr-tb;text-anchor:start;display:inline;fill:#000;fill-opacity:1;stroke:none;stroke-width:.0264356"/><path d="m11.407 42.805-.003.265 8.4.053.003-.265z" style="color:#000;font-style:normal;font-variant:normal;font-weight:400;font-stretch:normal;font-size:medium;line-height:normal;font-family:sans-serif;font-variant-ligatures:normal;font-variant-position:normal;font-variant-caps:normal;font-variant-numeric:normal;font-variant-alternates:normal;font-feature-settings:normal;text-indent:0;text-align:start;text-decoration:none;text-decoration-line:none;text-decoration-style:solid;text-decoration-color:#000;letter-spacing:normal;word-spacing:normal;text-transform:none;writing-mode:lr-tb;direction:ltr;text-orientation:mixed;dominant-baseline:auto;baseline-shift:baseline;text-anchor:start;white-space:normal;shape-padding:0;clip-rule:nonzero;display:inline;overflow:visible;visibility:visible;isolation:auto;mix-blend-mode:normal;color-interpolation:sRGB;color-interpolation-filters:linearRGB;solid-color:#000;solid-opacity:1;fill:#000;fill-opacity:1;fill-rule:evenodd;stroke:none;stroke-width:1.20122;stroke-linecap:butt;stroke-linejoin:miter;stroke-miterlimit:4;stroke-dasharray:7.62777,7.62777;stroke-dashoffset:.468278;stroke-opacity:1;color-rendering:auto;image-rendering:auto;shape-rendering:auto;text-rendering:auto"/><path d="M9.092 45.42c-.272 0-.407 0-.407.316v.336h.163v-.267c0-.222.08-.222.295-.222h1.04c.215 0 .295 0 .295.222v.86c0 .222-.08.222-.295.222h-.194v.163h.244c.272 0 .408 0 .408-.316v-.998c0-.316-.136-.316-.408-.316z" style="font-style:normal;font-variant:normal;font-weight:400;font-stretch:normal;font-size:15px;line-height:125%;font-family:Ubuntu;-inkscape-font-specification:Ubuntu;text-align:center;letter-spacing:0;word-spacing:0;writing-mode:lr-tb;text-anchor:middle;display:inline;fill:#000;fill-opacity:1;stroke:none;stroke-width:.0271698"/><path d="M8.766 46.153c-.272 0-.407 0-.407.316v.59c0 .317.135.317.407.317H9.5c.27 0 .407 0 .407-.316v-.555l-.163.163v.322c0 .223-.08.223-.295.223h-.632c-.216 0-.295 0-.295-.223v-.45c0-.224.08-.224.295-.224h.575l.163-.163h-.001z" style="font-style:normal;font-variant:normal;font-weight:400;font-stretch:normal;font-size:15px;line-height:125%;font-family:Ubuntu;-inkscape-font-specification:Ubuntu;text-align:center;letter-spacing:0;word-spacing:0;writing-mode:lr-tb;text-anchor:middle;display:inline;fill:#000;fill-opacity:1;stroke:none;stroke-width:.0271698"/><path d="M10.145 46.371s.119-.305.17-.625a3.6 3.6 0 0 0-.625.172z" style="color:#000;display:inline;overflow:visible;visibility:visible;fill:#000;fill-opacity:1;fill-rule:nonzero;stroke:none;stroke-width:.0815097;marker:none"/><path d="m9.984 45.958-.625.625.119.12.625-.626z" style="color:#000;font-style:normal;font-variant:normal;font-weight:400;font-stretch:normal;line-height:normal;font-family:Sans;-inkscape-font-specification:Sans;text-indent:0;text-align:start;text-decoration:none;text-decoration-line:none;letter-spacing:normal;word-spacing:normal;text-transform:none;writing-mode:lr-tb;direction:ltr;baseline-shift:baseline;text-anchor:start;display:inline;overflow:visible;visibility:visible;fill:#000;fill-opacity:1;stroke:none;stroke-width:.24453;marker:none"/><path d="m11.408 46.245-.004.265 9.873.04.004-.264z" style="color:#000;font-style:normal;font-variant:normal;font-weight:400;font-stretch:normal;font-size:medium;line-height:normal;font-family:sans-serif;font-variant-ligatures:normal;font-variant-position:normal;font-variant-caps:normal;font-variant-numeric:normal;font-variant-alternates:normal;font-feature-settings:normal;text-indent:0;text-align:start;text-decoration:none;text-decoration-line:none;text-decoration-style:solid;text-decoration-color:#000;letter-spacing:normal;word-spacing:normal;text-transform:none;writing-mode:lr-tb;direction:ltr;text-orientation:mixed;dominant-baseline:auto;baseline-shift:baseline;text-anchor:start;white-space:normal;shape-padding:0;clip-rule:nonzero;display:inline;overflow:visible;visibility:visible;isolation:auto;mix-blend-mode:normal;color-interpolation:sRGB;color-interpolation-filters:linearRGB;solid-color:#000;solid-opacity:1;fill:#000;fill-opacity:1;fill-rule:evenodd;stroke:none;stroke-width:1.28101;stroke-linecap:butt;stroke-linejoin:miter;stroke-miterlimit:4;stroke-dasharray:8.13445,8.13445;stroke-dashoffset:.433614;stroke-opacity:1;color-rendering:auto;image-rendering:auto;shape-rendering:auto;text-rendering:auto"/><path d="M6.904 8a.157.157 0 0 0-.156.158v49.686a.157.157 0 0 0 .156.156h52.192a.157.157 0 0 0 .156-.156V8.158A.157.157 0 0 0 59.096 8Zm.156.314h51.878v49.374H7.06Z" style="color:#000;font-style:normal;font-variant:normal;font-weight:400;font-stretch:normal;font-size:medium;line-height:normal;font-family:sans-serif;font-variant-ligatures:normal;font-variant-position:normal;font-variant-caps:normal;font-variant-numeric:normal;font-variant-alternates:normal;font-feature-settings:normal;text-indent:0;text-align:start;text-decoration:none;text-decoration-line:none;text-decoration-style:solid;text-decoration-color:#000;letter-spacing:normal;word-spacing:normal;text-transform:none;writing-mode:lr-tb;direction:ltr;text-orientation:mixed;dominant-baseline:auto;baseline-shift:baseline;text-anchor:start;white-space:normal;shape-padding:0;clip-rule:nonzero;display:inline;overflow:visible;visibility:visible;isolation:auto;mix-blend-mode:normal;color-interpolation:sRGB;color-interpolation-filters:linearRGB;solid-color:#000;solid-opacity:1;fill:#000;fill-opacity:1;fill-rule:nonzero;stroke:none;stroke-width:.999141;stroke-linecap:butt;stroke-linejoin:round;stroke-miterlimit:4;stroke-dasharray:none;stroke-dashoffset:0;stroke-opacity:1;color-rendering:auto;image-rendering:auto;shape-rendering:auto;text-rendering:auto"/><path d="m22.079 8.19.232 49.62.265-.002-.234-49.618z" style="color:#000;font-style:normal;font-variant:normal;font-weight:400;font-stretch:normal;font-size:medium;line-height:normal;font-family:sans-serif;font-variant-ligatures:normal;font-variant-position:normal;font-variant-caps:normal;font-variant-numeric:normal;font-variant-alternates:normal;font-feature-settings:normal;text-indent:0;text-align:start;text-decoration:none;text-decoration-line:none;text-decoration-style:solid;text-decoration-color:#000;letter-spacing:normal;word-spacing:normal;text-transform:none;writing-mode:lr-tb;direction:ltr;text-orientation:mixed;dominant-baseline:auto;baseline-shift:baseline;text-anchor:start;white-space:normal;shape-padding:0;clip-rule:nonzero;display:inline;overflow:visible;visibility:visible;isolation:auto;mix-blend-mode:normal;color-interpolation:sRGB;color-interpolation-filters:linearRGB;solid-color:#000;solid-opacity:1;fill:#000;fill-opacity:1;fill-rule:evenodd;stroke:none;stroke-width:.999141;stroke-linecap:butt;stroke-linejoin:miter;stroke-miterlimit:4;stroke-dasharray:none;stroke-dashoffset:0;stroke-opacity:1;color-rendering:auto;image-rendering:auto;shape-rendering:auto;text-rendering:auto"/></svg>