<svg xmlns="http://www.w3.org/2000/svg" xml:space="preserve" width="25.576" height="30.177"><path fill="#253b80" d="m7.266 29.154.523-3.322-1.165-.027H1.061L4.927 1.292a.316.316 0 0 1 .314-.268h9.38c3.114 0 5.263.648 6.385 1.927.526.6.861 1.227 1.023 1.917.17.724.173 1.589.007 2.644l-.012.077v.676l.526.298a3.7 3.7 0 0 1 1.065.812c.45.513.741 1.165.864 1.938.127.795.085 1.741-.123 2.812-.24 1.232-.628 2.305-1.152 3.183a6.55 6.55 0 0 1-1.825 2c-.696.494-1.523.869-2.458 1.109-.906.236-1.939.355-3.072.355h-.73c-.522 0-1.029.188-1.427.525a2.2 2.2 0 0 0-.744 1.328l-.055.299-.924 5.855-.042.215c-.011.068-.03.102-.058.125a.16.16 0 0 1-.096.035z"/><path fill="#179bd7" d="M23.048 7.667q-.042.268-.096.55c-1.237 6.351-5.469 8.545-10.874 8.545H9.326c-.661 0-1.218.48-1.321 1.132L6.596 26.83l-.399 2.533a.704.704 0 0 0 .695.814h4.881c.578 0 1.069-.42 1.16-.99l.048-.248.919-5.832.059-.32c.09-.572.582-.992 1.16-.992h.73c4.729 0 8.431-1.92 9.513-7.476.452-2.321.218-4.259-.978-5.622a4.7 4.7 0 0 0-1.336-1.03"/><path fill="#222d65" d="M21.754 7.151a10 10 0 0 0-1.203-.267 15 15 0 0 0-2.426-.177h-7.352a1.17 1.17 0 0 0-1.159.992L8.05 17.605l-.045.289a1.336 1.336 0 0 1 1.321-1.132h2.752c5.405 0 9.637-2.195 10.874-8.545q.055-.282.096-.55a6.6 6.6 0 0 0-1.017-.429 9 9 0 0 0-.277-.087"/><path fill="#253b80" d="M9.614 7.699a1.17 1.17 0 0 1 1.159-.991h7.352c.871 0 1.684.057 2.426.177q.318.051.619.117a10 10 0 0 1 .862.236q.548.181 1.017.429c.368-2.347-.003-3.945-1.272-5.392C20.378.682 17.853 0 14.622 0h-9.38c-.66 0-1.223.48-1.325 1.133L.01 25.898a.806.806 0 0 0 .795.932h5.791l1.454-9.225z"/></svg>