<svg xmlns="http://www.w3.org/2000/svg" viewBox="0 0 16.015 16"><g fill="gray" color="#000"><path d="M640.18 321a6.99 6.99 0 0 0-6.248 3.492c-1.928 3.343-.776 7.63 2.57 9.563s7.635.792 9.563-2.551.775-7.633-2.57-9.566a7 7 0 0 0-3.315-.938m-.182.996a6 6 0 0 1 6 6 6 6 0 0 1-6 6 6 6 0 0 1-6-6 6 6 0 0 1 6-6" style="font-feature-settings:normal;font-variant-alternates:normal;font-variant-caps:normal;font-variant-ligatures:none;font-variant-numeric:normal;font-variant-position:normal;isolation:auto;mix-blend-mode:normal;shape-padding:0;text-decoration-color:#000;text-decoration-line:none;text-decoration-style:solid;text-indent:0;text-transform:none;white-space:normal" transform="translate(-632 -320)"/><path d="M6.69.12v1.545a6.5 6.5 0 0 1 2.632.005V.12zm-2.754.99L1.931 2.813l.988 1.178A6.5 6.5 0 0 1 4.936 2.3zm8.13.012-.994 1.183.17.09A6.5 6.5 0 0 1 13.088 4l1.005-1.2zM.455 5.339.014 7.934l1.515.267a6.5 6.5 0 0 1 .455-2.592zm15.085.003-1.523.268a6.5 6.5 0 0 1 .464 2.591l1.533-.27zM1.86 10.036l-1.351.78 1.33 2.272 1.338-.773a6.5 6.5 0 0 1-1.317-2.279m12.301.003c-.136.422-.315.83-.535 1.215q-.332.574-.774 1.07l1.34.772 1.3-2.288zm-9.557 3.472-.535 1.469 2.48.884.526-1.445a6.5 6.5 0 0 1-2.304-.8zm6.814.015a6.5 6.5 0 0 1-2.475.898l.53 1.456 2.468-.916z"/><path d="M639.65 323.01a4.99 4.99 0 0 0-3.982 2.482 5.013 5.013 0 0 0 1.835 6.834 5 5 0 0 0 6.83-1.826 5.01 5.01 0 0 0-1.835-6.832 5 5 0 0 0-2.848-.658m.352.986a4 4 0 0 1 4 4 4 4 0 0 1-4 4 4 4 0 0 1-4-4 4 4 0 0 1 4-4" style="font-feature-settings:normal;font-variant-alternates:normal;font-variant-caps:normal;font-variant-ligatures:none;font-variant-numeric:normal;font-variant-position:normal;isolation:auto;mix-blend-mode:normal;shape-padding:0;text-decoration-color:#000;text-decoration-line:none;text-decoration-style:solid;text-indent:0;text-transform:none;white-space:normal" transform="translate(-632 -320)"/></g></svg>