<svg xmlns="http://www.w3.org/2000/svg" xml:space="preserve" width="16" height="16"><path d="M2.008 1.937A2.006 2.006 0 0 0 0 3.95v10.114h16V3.948a2.006 2.006 0 0 0-2.008-2.012zm.086 1.125h1.812a.503.503 0 0 1 0 1.008H2.094a.503.503 0 0 1 0-1.008m9.867 0h1.812a.503.503 0 0 1 0 1.008h-1.812a.497.497 0 0 1-.496-.508c0-.277.223-.5.496-.5M1 5.062l8 8H1Zm10.68.176h1.205v1.203l-.108.108a1.206 1.206 0 0 1 .545 1.709l.737 2.209.062.191h1.172v.602h-.97l.337 1.013q.034.105.031.21v.583h-.576a.604.604 0 0 1-.597-.412l-.413-1.234-.052-.16h-1.541l-.465 1.394a.605.605 0 0 1-.6.412h-.574v-.601q-.002-.096.03-.192l.337-1.013h-.97v-.602h1.171l.047-.146.62-1.852.134-.402a1.205 1.205 0 0 1 .545-1.709l-.107-.108Zm.601 1.807a.602.602 0 1 0 .002 1.204.602.602 0 0 0-.002-1.204M2 8.062v4h4zm10.281.887-.03.092-.538 1.617h1.139z" style="fill:gray;fill-opacity:1"/></svg>