<svg xmlns="http://www.w3.org/2000/svg" viewBox="0 0 16 16"><path fill="gray" d="M8.96 0q-.606 1.281-1.179 2.598c-.098.226-.2.48-.299.713l1.045 2.738c.187-.508.38-1.035.555-1.494q.52-1.317.918-2.235.381.884.9 2.217c.297.762.608 1.6.922 2.463h-2.93l.764 2H12.4c.162.485.407 1.136.58 1.598s.342.929.504 1.402h2.358q-.677-1.922-1.301-3.549a118 118 0 0 0-1.195-3.084A85 85 0 0 0 11.023 0z" style="font-feature-settings:normal;font-variant-caps:normal;font-variant-ligatures:normal;font-variant-numeric:normal"/><path fill="gray" d="M6.675 4h-1.35L1.156 15H0v1h3v-1h-.775l1.142-3h4.23l1.143 3H8v1h4v-1h-1.12zM5.482 6.45 7.217 11H3.748z" color="#000" style="font-feature-settings:normal;font-variant-alternates:normal;font-variant-caps:normal;font-variant-east-asian:normal;font-variant-ligatures:normal;font-variant-numeric:normal;font-variant-position:normal;font-variation-settings:normal;inline-size:0;isolation:auto;mix-blend-mode:normal;shape-margin:0;shape-padding:0;text-decoration-color:#000;text-decoration-line:none;text-decoration-style:solid;text-indent:0;text-orientation:mixed;text-transform:none;white-space:normal"/></svg>