<svg xmlns="http://www.w3.org/2000/svg" viewBox="0 0 16 16"><path fill="gray" d="M4.75 1A3.75 3.75 0 0 0 1 4.666c0 .943.247 1.68.5 2.36.14.33.299.655.469.974H3.66l1.393-4.644a.5.5 0 0 1 .959.005l1.605 5.537.946-2.57a.5.5 0 0 1 .916-.05L10.339 8h3.692c.17-.32.33-.644.469-.975.253-.68.5-1.416.5-2.359a3.75 3.75 0 0 0-7-1.785 3.75 3.75 0 0 0-3.25-1.88m.773 4.266L4.51 8.645A.5.5 0 0 1 4.03 9H2.557C3.85 11.001 5.727 12.866 8 15c2.273-2.134 4.15-3.999 5.443-6h-3.412a.5.5 0 0 1-.447-.277l-.482-.965-1.07 2.914a.5.5 0 0 1-.95-.033z" color="#000"/></svg>