<svg xmlns="http://www.w3.org/2000/svg" viewBox="0 0 16 16"><g fill="gray" transform="translate(-592 -460)"><path d="m598 464-4 8v.55c0 1.354.896 2.45 2 2.45h8c1.104 0 2-1.096 2-2.45V472l-4-8h-1l.342 1.006 1.885 3.77c.567 1.178 1.212 2.338 1.732 3.529.036.618-.155 1.466-.832 1.636-2.725.066-5.486.054-8.18.012-.726-.13-.953-1.013-.926-1.65.576-1.297 1.273-2.564 1.895-3.85l1.725-3.447-.016-.006.375-1z"/><path d="M598 462v3h.625l.375-.75V462z"/><rect width="6" height="1" x="597" y="461" rx=".5" ry=".5"/><path d="M602 462v3h-.625l-.375-.75V462z"/><path d="M597.24 470.1c-.396.815-.823 1.616-1.181 2.448.015.221.095.422.36.346 2.25.083 4.558.045 6.81.016.227-.05.702.133.69-.267.003-.406-.349-.758-.481-1.142l-1.75-3.518h-3.395z" opacity=".5"/></g></svg>