<svg xmlns="http://www.w3.org/2000/svg" viewBox="0 0 16 16"><g fill="gray"><path fill-rule="evenodd" d="M617.14 181.62a7 7 0 0 0-.777.406 33 33 0 0 0-.063 3.66c.212-.114.448-.185.703-.185q.153.001.297.031a32 32 0 0 1 .082-3.892zm6.162.207a16 16 0 0 1-.203 2.238c.13-.037.263-.064.404-.064.214 0 .417.048.602.13.085-.548.14-1.103.176-1.663a7 7 0 0 0-.979-.641m-9.312 2.604a7 7 0 0 0-.457.904c.607.42 1.225.841 1.869 1.254-.822.34-1.614.76-2.389 1.23l-.01.178q.005.474.072.941c.82-.53 1.675-.97 2.559-1.341a1.5 1.5 0 0 1-.131-.6c0-.477.233-.901.586-1.176a69 69 0 0 1-2.1-1.39zm12.182.267c-.457.02-.925.03-1.375.057.128.22.207.471.207.742 0 .085-.012.167-.026.248.529-.03 1.08-.043 1.621-.065a7 7 0 0 0-.427-.982m-4.07.285c-1.468.167-2.887.414-4.25.783.298.207.516.519.605.88a28.5 28.5 0 0 1 3.64-.65 1.5 1.5 0 0 1-.093-.5c0-.18.037-.352.097-.513m.4 1.617q-.229.71-.512 1.399l.014-.002c.35 0 .672.127.93.332q.27-.66.492-1.344a1.5 1.5 0 0 1-.924-.385m-4.022.627a1.5 1.5 0 0 1-.486.883 31 31 0 0 0 2.525 1.229c.037-.353.193-.671.434-.908a30 30 0 0 1-2.473-1.204m-.89 1.143a1.5 1.5 0 0 1-.586.123c-.157 0-.305-.033-.448-.078.134.823.326 1.616.567 2.379.248-.182.552-.293.88-.293.027 0 .052.006.079.008a16 16 0 0 1-.492-2.139m5.9.992c.004.044.014.086.014.131 0 .313-.099.603-.266.844q1.509.441 3.096.629a7 7 0 0 0 .373-.961 18 18 0 0 1-3.217-.643m-2.955.432a8 8 0 0 1-1.57 1.066c.259.22.444.519.51.864a9 9 0 0 0 1.595-1.073 1.5 1.5 0 0 1-.535-.857m-4.004 1.947c-.145.037-.293.088-.436.117-.643.133-1.228.19-1.765.223a7 7 0 0 0 .805.934c.374-.044.755-.093 1.162-.176.133-.028.274-.077.41-.11a1.47 1.47 0 0 1-.203-.732c0-.087.012-.172.027-.256m2.617 1.207a1.5 1.5 0 0 1-.873.518c.236.402.989 1.792 1.275 2.162l.791-.614c-.259-.334-.983-1.694-1.193-2.066" color="#000" opacity=".5" style="font-feature-settings:normal;font-variant-alternates:normal;font-variant-caps:normal;font-variant-ligatures:normal;font-variant-numeric:normal;font-variant-position:normal;isolation:auto;mix-blend-mode:normal;shape-padding:0;text-decoration-color:#000;text-decoration-line:none;text-decoration-style:solid;text-indent:0;text-orientation:mixed;text-transform:none;white-space:normal" transform="translate(-612 -180)"/><path d="M8 0a8 8 0 0 0-8 8 8 8 0 0 0 8 8 8 8 0 0 0 8-8 8 8 0 0 0-8-8m0 1a7 7 0 0 1 7 7 7 7 0 0 1-7 7 7 7 0 0 1-7-7 7 7 0 0 1 7-7m3.5 3.504a1 .996 0 0 0-1 .996 1 .996 0 0 0 1 .996 1 .996 0 0 0 1-.996 1 .996 0 0 0-1-.996M5 6.004A1 .996 0 0 0 4 7a1 .996 0 0 0 1 .996A1 .996 0 0 0 6 7a1 .996 0 0 0-1-.996M10 8.5a1 .996 0 0 0-1 .996 1 .996 0 0 0 1 .996 1 .996 0 0 0 1-.996 1 .996 0 0 0-1-.996m-4 2.504A1 .996 0 0 0 5 12a1 .996 0 0 0 1 .996A1 .996 0 0 0 7 12a1 .996 0 0 0-1-.996"/></g></svg>