<svg xmlns="http://www.w3.org/2000/svg" viewBox="0 0 16 16"><path fill="gray" d="M564.45 460.09c.4 0 .786.092 1.143.216l-1.885 1.88a.973.973 0 0 0 0 1.386l.711.709a.98.98 0 0 0 1.39 0l1.885-1.88c.125.356.217.742.217 1.14a3.456 3.456 0 0 1-3.461 3.452 3.5 3.5 0 0 1-1.143-.216l-1.174 1.171h-.062l-2.07-2.065 1.205-1.201a3.5 3.5 0 0 1-.217-1.14 3.456 3.456 0 0 1 3.461-3.452m-2.55 3.889 2.07 2.064q-.017.046-.031.093l-5.144 5.14c.125.356.217.742.217 1.14a3.456 3.456 0 0 1-3.461 3.451c-.434 0-.854-.101-1.236-.246l2.008-2.003a1.01 1.01 0 0 0 0-1.418l-.68-.678a1.03 1.03 0 0 0-.71-.308 1.03 1.03 0 0 0-.71.308l-1.947 1.942a3.5 3.5 0 0 1-.186-1.048 3.456 3.456 0 0 1 3.46-3.451c.4 0 .787.091 1.144.215z" color="#000" style="text-decoration-line:none;text-indent:0;text-transform:none" transform="translate(-552 -460)"/></svg>