<svg xmlns="http://www.w3.org/2000/svg" viewBox="0 0 16.18 16"><g fill="gray" color="#000"><path d="M11.5 3a1.5 1.5 0 1 0 0 3 1.5 1.5 0 0 0 0-3"/><path d="M3.99 1c-1.258.015-2.179-.03-2.932.385a1.88 1.88 0 0 0-.837.998C.056 2.82-.004 3.343-.004 4v8c0 .658.06 1.179.225 1.617.164.439.461.79.837.998.753.416 1.674.37 2.932.385h8.137c1.258-.015 2.179.03 2.932-.385a1.88 1.88 0 0 0 .837-.998c.165-.438.384-.979.225-1.617V4c0-.658-.06-1.178-.225-1.617a1.88 1.88 0 0 0-.838-.998c-.752-.416-1.673-.37-2.931-.385H3.994zm2.006 1h4.125c2 0 3.484-.016 4.227.225.983.447.773 1.775.773 2.775 0 2.123-.036 4.677-.125 7H1.12a194 194 0 0 1-.125-7c0-1-.21-2.328.773-2.775C2.512 1.985 3.996 2 5.996 2"/><path d="M6 5.5 3 11h8L8.5 6.5 7.5 8z"/></g></svg>