<svg xmlns="http://www.w3.org/2000/svg" viewBox="0 0 16 16"><path fill="gray" d="M3.8 3c-.536 0-.805 0-.805.625v.75C2.995 5 3.264 5 3.8 5h.39c.537 0 .805 0 .805-.625v-.75c0-.603-.268-.625-.804-.625zm4 0c-.536 0-.805 0-.805.625v.75C6.995 5 7.264 5 7.8 5h.39c.537 0 .805 0 .805-.625v-.75c0-.603-.268-.625-.804-.625zm4 0c-.536 0-.805 0-.805.625v.75c0 .625.269.625.805.625h.39c.537 0 .805 0 .805-.625v-.75c0-.603-.268-.625-.804-.625zm-8 4c-.536 0-.805 0-.805.625v.75C2.995 9 3.264 9 3.8 9h.39c.537 0 .805 0 .805-.625v-.75c0-.603-.268-.625-.804-.625zm4 0c-.536 0-.805 0-.805.625v.75C6.995 9 7.264 9 7.8 9h.39c.537 0 .805 0 .805-.625v-.75c0-.603-.268-.625-.804-.625zm4 0c-.536 0-.805 0-.805.625v.75c0 .625.269.625.805.625h.39c.537 0 .805 0 .805-.625v-.75c0-.603-.268-.625-.804-.625zm-8 4c-.536 0-.805 0-.805.625v.75c0 .625.269.625.805.625h.39c.537 0 .805 0 .805-.625v-.75c0-.603-.268-.625-.804-.625zm4 0c-.536 0-.805 0-.805.625v.75c0 .625.269.625.805.625h.39c.537 0 .805 0 .805-.625v-.75c0-.603-.268-.625-.804-.625zm4 0c-.536 0-.805 0-.805.625v.75c0 .625.269.625.805.625h.39c.537 0 .805 0 .805-.625v-.75c0-.603-.268-.625-.804-.625z" color="#000"/></svg>