<svg xmlns="http://www.w3.org/2000/svg" viewBox="0 0 16 16"><g fill="gray"><path d="M3.992 0c-.05 0-.096.015-.144.02.215-.004.357-.017.646-.02zm.514 0c1.258.015 1.679-.03 2.431.385.377.207.674.56.838.998C7.94 1.82 8 2.343 8 3v1h3v-.246C11 2.646 11.446 2 12 2s1 .646 1 1.754V4c1.108 0 2-1.392 2-2.5S14.108 0 13 0z"/><path d="M4.494 0C3.236.015 2.815-.03 2.063.385a1.88 1.88 0 0 0-.838.998C1.06 1.82 1 2.343 1 3v10c0 .658.06 1.179.225 1.617.164.439.461.789.838.996.752.415.673.372 1.931.387h1.012c1.258-.015 1.179.028 1.932-.387.376-.207.673-.557.837-.996C7.94 14.18 8 13.657 8 13V3c0-.658-.06-1.178-.225-1.617a1.88 1.88 0 0 0-.838-.998C6.185-.031 5.764.015 4.506 0h-.008zM4.5 1c1.259.015 1.59.06 1.955.262.184.1.287.212.385.472.097.26.16.674.16 1.266v10c0 .592-.063 1.006-.16 1.266-.098.26-.202.371-.385.472-.366.202-.196.247-1.455.262H4c-1.259-.015-1.09-.06-1.455-.262-.183-.1-.287-.213-.385-.472C2.063 14.006 2 13.592 2 13V3c0-.592.063-1.006.16-1.266.098-.26.202-.371.385-.472C2.91 1.06 3.24 1.015 4.5 1m0 1A1.5 1.5 0 0 0 3 3.5 1.5 1.5 0 0 0 4.5 5 1.5 1.5 0 0 0 6 3.5 1.5 1.5 0 0 0 4.5 2m0 1a.5.5 0 0 1 .5.5.5.5 0 0 1-.5.5.5.5 0 0 1-.5-.5.5.5 0 0 1 .5-.5" color="#000" style="font-feature-settings:normal;font-variant-alternates:normal;font-variant-caps:normal;font-variant-ligatures:normal;font-variant-numeric:normal;font-variant-position:normal;isolation:auto;mix-blend-mode:normal;shape-padding:0;text-decoration-color:#000;text-decoration-line:none;text-decoration-style:solid;text-indent:0;text-orientation:mixed;text-transform:none;white-space:normal"/><path d="M8 5v4c1 .5 3.105 2.35 6 3-.913-3.491-3.5-5.5-6-7m2.5 3c.276 0 .697.477.875.688 1.255 2.24-.551.536-1.375-.188a.5.5 0 0 1 .5-.5"/></g></svg>