<svg xmlns="http://www.w3.org/2000/svg" xml:space="preserve" width="496" height="496" version="1.0"><path d="M257.414 44.669c-4.03.227-8.514.738-9.934 1.078s-3.462.625-4.54.625c-1.08 0-3.917.397-6.245.851a451 451 0 0 1-8.514 1.76c-7.776 1.59-19.47 4.768-25.09 6.811-11.125 4.087-15.609 5.847-21.456 8.572-16.063 7.435-25.373 12.998-40.017 23.953-4.371 3.236-8.06 6.074-8.23 6.244-.171.17-1.93 1.76-3.974 3.406-6.13 5.166-16.575 15.78-23.5 23.954-3.86 4.541-15.1 19.924-15.1 20.662 0 .113-.737 1.305-1.645 2.668-.908 1.362-2.214 3.462-2.895 4.71-3.973 7.323-4.655 8.288-14.19 19.584-2.044 2.44-5.847 7.039-8.515 10.217-2.668 3.236-5.563 6.755-6.528 7.834-13.396 15.78-51.938 62.439-51.938 62.95 0 .34.965 1.816 2.157 3.178 1.135 1.363 4.257 5.166 6.925 8.345 2.668 3.178 6.471 7.776 8.515 10.217 2.043 2.384 7.89 9.48 13.055 15.666a2197 2197 0 0 0 12.772 15.326c1.873 2.214 5.562 6.642 8.23 9.877 2.668 3.179 6.471 7.777 8.515 10.217 2.043 2.441 5.846 7.04 8.514 10.218a1649 1649 0 0 1 8.685 10.444c8.741 10.445 10.444 12.545 14.077 17.937 1.419 2.044 2.952 4.2 3.462 4.825.511.624 2.214 2.668 3.69 4.541 7.89 9.82 16.972 19.243 26.338 27.246 10.217 8.685 28.325 21.457 34.569 24.352.454.227 2.384 1.248 4.257 2.327 6.3 3.576 17.54 8.741 25.827 11.92a80 80 0 0 1 4.427 1.76c1.022.454 2.214.794 2.668.794s1.646.34 2.668.795c1.022.397 3.406 1.192 5.28 1.76 1.872.51 4.427 1.305 5.675 1.703 1.25.397 4.314 1.135 6.812 1.702 2.498.511 5.96 1.306 7.663 1.703 1.703.454 4.257.909 5.676 1.079 1.42.113 3.974.51 5.677.851 9.309 1.76 17.88 2.328 34.625 2.328 9.536 0 19.129-.284 21.286-.625 2.214-.34 6.017-.795 8.514-1.078 4.428-.454 7.039-.909 15.61-2.611 8.344-1.703 21.797-5.336 25.43-6.812 1.022-.454 2.27-.795 2.838-.795.51 0 1.476-.397 2.044-.851.624-.454 1.589-.852 2.1-.852.567 0 1.703-.34 2.61-.794.852-.454 2.725-1.249 4.145-1.76 5.335-2.043 19.129-8.685 24.691-11.92a280 280 0 0 1 4.541-2.554c1.306-.682 1.42-.738 9.31-5.96 6.414-4.258 9.82-6.642 10.274-7.096.17-.17 1.93-1.59 3.973-3.122s4.087-3.179 4.598-3.633c.51-.51 2.554-2.27 4.54-3.973 1.988-1.703 6.301-5.79 9.594-9.082 5.222-5.222 7.606-7.833 13.68-14.815 2.1-2.441 11.295-14.702 11.295-15.1 0-.17.738-1.305 1.59-2.44.908-1.135 1.816-2.44 1.986-2.895.228-.454.909-1.646 1.533-2.554a53 53 0 0 0 1.703-2.838c.34-.625 1.078-1.93 1.646-2.838 1.135-1.76 8.004-15.44 9.593-19.016.454-1.079 1.078-2.498 1.42-3.065.283-.625.737-1.76.964-2.555.284-.794 1.022-2.894 1.703-4.597 2.838-7.38 5.96-17.994 7.55-25.544 3.802-17.937 4.54-25.713 4.2-43.707-.227-14.475-.511-18.22-2.441-30.084-1.533-9.31-4.938-23.216-6.812-27.7-.454-1.022-.794-2.214-.794-2.668s-.34-1.647-.795-2.668a80 80 0 0 1-1.76-4.428c-.51-1.419-1.362-3.462-1.816-4.54a353 353 0 0 0-1.59-3.69c-1.305-3.122-8.287-16.973-9.422-18.732-.568-.965-1.305-2.214-1.59-2.838-.283-.625-1.191-2.1-1.986-3.293-.795-1.192-1.476-2.27-1.476-2.384 0-.397-5.279-7.946-9.536-13.623-11.636-15.44-25.997-29.743-41.267-41.21-6.754-5.108-13.907-9.99-16.46-11.295a53 53 0 0 1-2.839-1.703c-2.668-1.703-3.86-2.384-8.912-4.995-2.61-1.363-5.108-2.668-5.563-2.952-2.667-1.533-12.714-5.96-18.845-8.287-1.192-.455-3.235-1.192-4.54-1.703-6.642-2.498-13.567-4.655-21.741-6.642-1.873-.454-4.655-1.192-6.244-1.532-1.532-.398-4.087-.908-5.676-1.192a437 437 0 0 1-6.528-1.022c-12.488-2.1-16.177-2.384-31.39-2.611-8.798-.114-19.3 0-23.386.284m30.368 53.925c10.217.851 21.116 2.667 28.95 4.881 4.824 1.362 13.679 4.2 16.177 5.166 3.86 1.475 12.941 5.562 14.474 6.414.454.284 2.157 1.192 3.69 1.986 1.589.795 3.632 1.93 4.54 2.555a53 53 0 0 0 2.839 1.703c1.305.68 2.497 1.475 8.23 5.279 7.834 5.279 19.64 15.893 28.155 25.373 8.344 9.252 18.334 25.146 23.954 38.03.454 1.08 1.078 2.442 1.305 2.952 1.533 3.066 5.109 14.305 6.925 21.74 2.044 8.118 2.611 12.545 3.86 27.871.568 6.755.568 9.934 0 15.042-.397 3.576-.908 8.401-1.192 10.728-.227 2.328-.738 5.45-1.078 6.926-.34 1.532-.908 3.916-1.25 5.392-.34 1.533-.85 3.633-1.134 4.711-.738 3.293-2.044 7.493-3.35 10.785-.68 1.703-1.418 3.747-1.645 4.541-1.42 4.541-9.593 20.662-12.318 24.238-.738.965-1.362 1.93-1.362 2.1 0 .454-6.698 9.877-8.004 11.296-.624.681-1.93 2.27-2.838 3.52-2.214 3.065-16.972 17.482-21.456 21.002-8.401 6.584-21.003 14.758-26.168 17.085-.454.227-2.895 1.363-5.393 2.498-5.278 2.497-9.309 4.144-17.142 7.038-6.698 2.441-18.448 5.11-29.687 6.812-8.287 1.249-34.228 1.249-42.572 0-11.41-1.703-24.295-4.711-29.403-6.812-1.022-.454-2.214-.794-2.668-.794s-1.76-.398-2.952-.908c-1.192-.511-2.895-1.306-3.86-1.647-7.72-3.235-17.596-8.23-22.137-11.125-.908-.568-2.1-1.249-2.554-1.476-2.668-1.249-14.93-10.274-19.527-14.418-3.292-2.895-11.466-11.068-14.872-14.758-2.44-2.668-12.26-15.553-12.885-16.972a27 27 0 0 0-1.533-2.554 53 53 0 0 1-1.702-2.839 66 66 0 0 0-1.647-2.838c-1.986-3.122-8.57-16.858-8.57-17.88 0-.284-.341-1.362-.795-2.384-1.42-3.292-2.441-6.3-3.463-9.82a179 179 0 0 0-1.76-6.017c-.454-1.476-.794-3.122-.794-3.69 0-.624-.34-2.724-.852-4.768-3.973-17.54-3.235-43.423 1.76-61.076.454-1.59.795-3.293.795-3.804s.34-1.76.794-2.78a82 82 0 0 0 1.703-4.996c1.59-5.222 2.895-8.344 7.096-17.029 8.117-16.688 15.042-26.395 29.005-40.358 10.388-10.445 21.57-19.243 30.936-24.352 1.249-.68 3.065-1.702 3.973-2.27 1.817-1.135 4.712-2.554 10.502-5.222 7.209-3.293 10.103-4.428 14.758-5.847 1.703-.568 3.973-1.362 4.995-1.76 1.022-.454 2.384-.794 3.009-.794.624 0 1.646-.284 2.27-.625.624-.34 2.327-.794 3.803-1.021 1.476-.284 3.803-.738 5.222-1.079 11.977-2.895 30.596-4.144 44.843-2.951" style="fill:#ccc;fill-opacity:1;stroke:none;stroke-width:.0567629"/></svg>