<svg xmlns="http://www.w3.org/2000/svg" xmlns:i="&amp;ns_ai;" i:pageBounds="0 792 612 0" i:rulerOrigin="0 0" i:viewOrigin="262 450" xml:space="preserve" width="496" height="496" overflow="visible"><path fill="#474747" d="M-352.278-15.544c-127.867 0-231.524 103.658-231.525 231.525 0 127.868 103.657 231.526 231.525 231.526s231.526-103.657 231.526-231.526c0-127.868-103.658-231.525-231.526-231.525" style="fill:#fff;fill-opacity:1;stroke-width:.933571" transform="translate(600.277 32.018)"/><g i:dimmedPercent="50" i:layer="yes" i:rgbTrio="#4F008000FFFF" fill="#a80030"><path i:knockout="Off" d="M275.499 257.933c-5.81.082 1.099 2.995 8.683 4.161a78 78 0 0 0 5.69-4.9c-4.723 1.157-9.53 1.182-14.373.74m31.182-7.772c3.46-4.776 5.981-10.004 6.87-15.409-.776 3.853-2.868 7.18-4.836 10.691-10.86 6.838-1.022-4.06-.007-8.202-11.678 14.698-1.604 8.813-2.027 12.919m11.51-29.95c.701-10.462-2.06-7.155-2.988-3.162 1.083.562 1.94 7.374 2.987 3.161M253.47 77.214c3.1.556 6.698.983 6.194 1.724 3.39-.744 4.16-1.43-6.195-1.724m6.195 1.724-2.193.453 2.04-.182z"/><path i:knockout="Off" d="M356.343 224.178c.346 9.395-2.747 13.953-5.538 22.023l-5.02 2.509c-4.11 7.979.397 5.066-2.545 11.412-6.415 5.704-19.466 17.846-23.643 18.955-3.049-.067 2.066-3.598 2.735-4.982-8.587 5.898-6.89 8.853-20.022 12.435l-.385-.854c-32.388 15.237-77.378-14.96-76.787-56.16-.345 2.615-.983 1.962-1.7 3.019-1.672-21.199 9.789-42.492 29.12-51.185 18.906-9.36 41.071-5.52 54.615 7.103-7.44-9.744-22.247-20.074-39.795-19.108-17.19.272-33.272 11.196-38.639 23.055-8.806 5.545-9.828 21.374-13.666 24.27-5.163 37.946 9.712 54.34 34.875 73.626 3.96 2.67 1.115 3.074 1.652 5.108-8.36-3.915-16.016-9.825-22.311-17.06 3.34 4.888 6.945 9.64 11.603 13.374-7.882-2.67-18.412-19.1-21.486-19.77 13.588 24.329 55.129 42.667 76.881 33.568-10.064.373-22.85.208-34.16-3.973-4.75-2.444-11.209-7.507-10.055-8.454 29.686 11.09 60.351 8.4 86.037-12.191 6.534-5.089 13.673-13.747 15.736-13.867-3.108 4.672.53 2.247-1.856 6.373 6.51-10.501-2.83-4.275 6.73-18.135l3.53 4.862c-1.311-8.716 10.826-19.3 9.593-33.085 2.784-4.217 3.108 4.535.152 14.234 4.1-10.759 1.08-12.489 2.134-21.367 1.138 2.985 2.632 6.156 3.398 9.305-2.67-10.398 2.742-17.51 4.08-23.552-1.319-.586-4.122 4.596-4.762-7.686.094-5.334 1.484-2.796 2.02-4.109-1.047-.601-3.795-4.69-5.466-12.534 1.212-1.843 3.239 4.778 4.888 5.05-1.06-6.236-2.888-10.993-2.962-15.777-4.816-10.068-1.704 1.341-5.612-4.323-5.128-15.993 4.254-3.711 4.888-10.98 7.772 11.261 12.205 28.713 14.239 35.942-1.553-8.813-4.061-17.352-7.123-25.611 2.36.992-3.802-18.134 3.068-5.468-7.339-27.002-31.408-52.232-53.551-64.071 2.709 2.48 6.129 5.592 4.9 6.08-11.011-6.556-9.074-7.067-10.652-9.837-8.972-3.65-9.56.294-15.503.006-16.908-8.968-20.168-8.015-35.727-13.633l.708 3.307c-11.203-3.731-13.052 1.416-25.16.013-.737-.576 3.88-2.083 7.679-2.635-10.83 1.43-10.323-2.134-20.921.394 2.612-1.832 5.373-3.045 8.16-4.603-8.832.537-21.085 5.14-17.303.953-14.406 6.427-39.993 15.451-54.35 28.913l-.454-3.016c-6.578 7.897-28.689 23.588-30.45 33.817l-1.76.41c-3.423 5.797-5.638 12.367-8.353 18.332-4.479 7.63-6.564 2.935-5.927 4.132-8.806 17.855-13.18 32.86-16.96 45.165 2.693 4.025.065 24.232 1.083 40.403-4.423 79.868 56.054 157.416 122.16 175.32 9.69 3.465 24.099 3.333 36.355 3.688-14.462-4.135-16.33-2.191-30.416-7.102-10.162-4.785-12.39-10.25-19.585-16.495l2.848 5.033c-14.116-4.994-8.21-6.18-19.693-9.817l3.042-3.974c-4.574-.346-12.117-7.71-14.18-11.788l-5.005.198c-6.013-7.42-9.217-12.768-8.984-16.91l-1.617 2.881c-1.833-3.146-22.123-27.826-11.596-22.081-1.957-1.788-4.555-2.91-7.375-8.031l2.143-2.45c-5.065-6.519-9.323-14.873-9-17.656 2.703 3.65 4.578 4.332 6.433 4.955-12.792-31.74-13.51-1.747-23.2-32.31l2.05-.165c-1.571-2.366-2.525-4.937-3.79-7.459l.893-8.89c-9.21-10.65-2.576-45.282-1.247-64.275.92-7.724 7.688-15.946 12.835-28.839l-3.136-.54c5.993-10.456 34.224-41.99 47.298-40.368 6.334-7.956-1.257-.028-2.496-2.033 13.912-14.397 18.287-10.17 27.675-12.761 10.126-6.01-8.69 2.345-3.889-2.292 17.503-4.471 12.405-10.165 35.24-12.434 2.408 1.37-5.59 2.117-7.597 3.895 14.583-7.135 46.15-5.512 66.655 3.961 23.791 11.119 50.522 43.985 51.575 74.909l1.2.324c-.608 12.292 1.882 26.507-2.431 39.565z"/><path i:knockout="Off" d="m212.086 265.91-.815 4.073c3.819 5.186 6.848 10.805 11.724 14.86-3.508-6.848-6.114-9.678-10.909-18.934m9.027-.355c-2.021-2.234-3.217-4.924-4.555-7.604 1.28 4.71 3.902 8.758 6.343 12.874zm159.724-34.717-.854 2.141c-1.564 11.115-4.943 22.114-10.122 32.31 5.722-10.759 9.424-22.527 10.976-34.45m-126.22-156.41c3.927-1.439 9.656-.79 13.824-1.736-5.431.456-10.837.727-16.175 1.416zm-137.905 73.331c.906 8.38-6.304 11.633 1.597 6.106 4.235-9.54-1.655-2.634-1.596-6.106m-9.286 38.783c1.82-5.586 2.15-8.943 2.845-12.176-5.03 6.43-2.315 7.801-2.845 12.176"/></g></svg>