<svg xmlns="http://www.w3.org/2000/svg" width="496" height="496"><path d="M158.115 10.59a1237 1237 0 0 1-11.072 34.351A230.11 230.11 0 0 0 10.701 255.078a230.1 230.1 0 0 0 10.115 67.47q-3.244 5.826-6.52 11.63l-3.595 7.191 5.543 2.856c3.745 1.738 8.402 3.04 14.303 4.337a230 230 0 0 0 19.476 35.163c79.814 6.816 169.258 10.145 246.397-1.063 58.482-8.497 109.352-25.57 144.77-54.705 3.582-2.796 6.94-5.69 10.037-8.678a142 142 0 0 0 12.476-13.861q1.167-1.485 2.291-3l.002-.008c6.46-8.706 11.521-17.533 15.707-25.76l3.596-7.19-7.192-7.19a113 113 0 0 0-7.191-6.92v-.272A230.107 230.107 0 0 0 240.809 24.971a230 230 0 0 0-63.616 8.968c-9.076-13.33-16.164-22.48-19.078-23.35m7.19 32.36c24.55 43.187 45.758 67.673 71.908 115.052 2.61 30.202 13.274 186.93 14.383 201.344-7.763-.635-49.098-4.766-100.908-10.149-28.248-2.935-57.344-6.267-80.97-9.642l-37.443-8.973c42.363-74.85 109.654-192.239 133.03-287.633m89.886 122.243s98.635 77.627 140.221 172.58c-50.596 24.952-97.25 21.746-125.84 21.573 20.305-52.137 20.274-122.764-14.38-194.153m68.313 43.145c17.887 4.915 38.218 11.13 57.527 17.976 35.02 12.416 67.552 29.488 86.29 46.743-10.714 19.755-29.344 43.365-57.526 57.525 3.02-29.558-7.73-57.994-28.764-79.1-15.53-15.583-36.022-28.734-57.527-43.144M456.05 336.447c-38.683 34.141-95.037 52.518-157.397 61.578-74.66 10.848-159.097 8.376-235.804 2.313a230.1 230.1 0 0 0 177.96 84.846 230.11 230.11 0 0 0 215.24-148.737" style="fill:#ccc;stroke:none"/></svg>