<svg xmlns="http://www.w3.org/2000/svg" width="512" height="512" fill="none"><g clip-path="url(#a)"><path fill="url(#b)" d="M264.835 54.57h100.416c15.209 0 30.027 5.46 42.701 15.6l24.763 20.082v174.9c0 60.054-25.348 116.21-67.659 149.357L265.03 492.892s-4.095 3.314-8.384 6.629a540 540 0 0 0-8.385-6.629l-100.026-78.383c-42.311-33.147-67.659-89.108-67.659-149.357V90.447l24.763-20.083c12.479-10.14 27.493-15.599 42.701-15.599h116.795z"/><path fill="#fff" d="M440.904 267.687c0 62.784-26.712 121.279-70.974 155.791l-104.9 81.698s-4.485 3.509-8.774 6.824c-4.485-3.51-8.775-6.824-8.775-6.824l-104.9-81.698c44.456-26.128 88.912-52.45 133.368-78.578a67246 67246 0 0 0 164.955-77.213" opacity=".1"/><path fill="#000" d="M409.512 347.435c-3.51-8.969-7.994-17.159-13.649-24.763-2.925-3.9-9.749-12.089-21.058-21.058q-4.387-3.51-8.189-5.849l.195-3.51c.195-1.95 2.73-46.796-7.02-96.322-5.849-29.442-14.818-54.205-26.517-73.703-15.209-24.958-35.097-41.532-59.275-48.94-13.844-4.29-27.688-6.63-40.751-6.63-31.393 0-61.03 12.674-85.403 36.852-16.378 16.183-25.153 32.172-27.297 35.876L87.4 127.104l5.655 85.013 33.342 2.535c-.585 29.832-19.303 50.11-19.498 50.305l-3.51 3.705 3.12 3.9c4.484 5.459 11.114 8.579 19.108 8.579h.195c0 .78 0 1.365-.195 2.145s-.585 1.559-1.17 2.144l-.195.195-.195.195c-3.899 6.045-3.314 10.529-2.145 13.259.585 1.56 1.56 2.925 2.73 3.9-.78 2.34-.585 4.484 0 6.044.975 3.12 3.51 5.265 5.85 6.435-.975 10.919 1.17 18.328 6.434 22.618 3.9 3.314 8.774 4.874 14.819 4.874 6.434 0 13.454-1.755 22.228-4.094 4.679-1.17 15.598-4.68 28.662-12.284 4.68 10.919 6.63 22.423 5.46 33.537-3.315 33.537-31.392 52.06-37.047 55.57l-7.214 4.29 6.629 5.069 86.572 66.294 37.242-28.857s.78-1.17.78-1.365l.39.585 63.369-48.356v.585l5.46-4.68.78-.585 3.9-3.314c7.799-6.63 15.013-14.039 21.253-22.033a158.7 158.7 0 0 0 19.303-31.003l.975-2.144zm-68.244-8.579c-.195-.39-.39-.78-.78-1.365 7.994 10.724 13.064 20.863 15.599 30.027 1.56 6.435 2.534 13.649 2.729 15.599-4.484-15.599-10.334-30.418-17.548-44.261"/><path fill="url(#c)" d="M264.835 48.136h100.416q6.142 0 12.284 1.17c7.994 1.365 15.793 4.29 22.813 8.19 3.51 1.95 6.824 4.29 10.139 6.629 1.755 1.365 2.925 2.34 4.485 3.51l4.289 3.51 17.354 14.038c1.559 1.17 2.339 2.925 2.339 4.875v.195l1.365 120.499.39 30.222.195 15.014c0 5.069.195 9.944 0 15.209-.195 20.863-3.704 41.726-9.944 61.809-3.315 9.944-7.019 19.888-11.894 29.248-1.17 2.339-2.535 4.679-3.704 7.019s-2.535 4.68-3.9 6.824l-4.29 6.825-4.679 6.434c-6.24 8.579-13.064 16.769-21.058 23.983a80 80 0 0 1-6.045 5.46c-1.95 1.754-4.095 3.509-6.044 5.069l-11.699 9.359-94.177 75.459c-4.29 3.509-10.334 3.314-14.429 0l-94.176-75.459-11.699-9.359c-1.95-1.56-4.095-3.315-6.045-5.069s-4.095-3.51-6.044-5.46c-7.8-7.214-14.624-15.404-21.058-23.983l-4.68-6.434-4.29-6.825c-1.365-2.144-2.73-4.484-3.9-6.824s-2.534-4.68-3.704-7.019c-4.68-9.36-8.58-19.304-11.894-29.248-6.24-20.083-9.75-40.946-9.944-61.809-.195-5.265 0-10.334 0-15.209l.195-15.014.39-30.222 1.365-120.5c0-1.95.975-3.704 2.34-4.874L94.81 69.974l4.68-3.9c.779-.584 1.559-1.364 2.534-1.95.78-.779 1.755-1.364 2.73-1.949a74.5 74.5 0 0 1 11.504-6.824c7.994-3.9 16.768-6.435 25.738-7.02 2.145-.195 4.484-.195 6.629-.195zm0 12.87h-115.82c-1.95 0-3.705 0-5.654.194-7.215.585-14.429 2.535-21.059 5.85-3.314 1.56-6.434 3.51-9.554 5.654-.78.585-1.56 1.17-2.145 1.755l-2.339 1.755-4.68 3.9-18.913 15.403 2.34-5.07 1.364 120.5.39 30.222.195 15.014c0 5.069 0 10.139.39 14.819.585 19.303 4.29 38.411 10.335 56.545 3.314 8.969 6.824 17.938 11.308 26.322.975 2.145 2.34 4.095 3.51 6.24s2.34 4.094 3.705 6.044l3.899 6.045 4.29 5.654c5.85 7.41 12.089 14.624 19.108 20.863l5.265 4.68c1.95 1.56 3.51 2.925 5.654 4.484l11.894 9.165 95.737 73.313h-14.429l95.737-73.313 11.894-9.165c2.144-1.559 3.704-2.924 5.654-4.484 1.755-1.56 3.705-2.925 5.265-4.68 7.019-6.239 13.259-13.453 19.108-20.863l4.29-5.654 3.899-6.045c1.365-1.95 2.535-4.094 3.705-6.044 1.17-2.145 2.535-4.095 3.51-6.24 4.484-8.384 8.189-17.353 11.309-26.322 6.044-18.134 9.749-37.242 10.334-56.545.195-4.68.195-9.75.39-14.819l.195-15.014.39-30.222 1.365-120.5 2.339 5.07-17.353-14.039-4.29-3.51c-1.365-1.17-2.925-2.34-4.289-3.509-2.73-2.145-5.46-3.9-8.385-5.654-5.849-3.315-12.284-5.655-18.913-6.825-3.315-.585-6.629-.975-9.944-.975H264.835"/><path fill="#000" d="M263.275 47.746h104.121c15.793 0 31.197 5.655 44.261 16.379l25.738 21.058c-56.35 37.241-112.701 74.483-168.856 111.725-65.514 23.788-131.223 47.576-196.737 71.559.78-60.64 1.365-121.085 2.145-181.724 7.994-6.24 15.793-12.284 23.788-18.524 4.484-4.29 11.894-10.139 22.423-14.428 8.774-3.705 16.768-4.875 22.228-5.46l103.535-.585z" opacity=".25"/><path fill="#fff" d="M341.658 330.276c4.29 5.265 15.794 19.888 19.888 36.657 2.145 7.994 2.925 16.963 2.925 16.963.585 6.825.585 12.869.39 17.549a144 144 0 0 0 20.473-21.253c8.579-10.919 14.624-21.448 18.523-29.833a95 95 0 0 0-13.063-23.398c-1.95-2.534-8.19-10.529-20.084-19.888-18.133-14.234-29.247-14.623-52.84-30.612-6.824-4.68-12.089-8.774-15.209-11.504l57.91 27.688s10.919-182.114-88.912-213.312c-99.831-31.197-147.017 64.15-147.017 64.15l69.414 30.027-101.001-37.242 4.68 71.364 120.694 8.969c2.145-19.498 18.523-34.122 36.657-34.512 22.228-.39 40.556 20.668 37.436 41.532-2.34 16.183-17.158 29.247-34.122 30.417-19.108 1.365-37.436-13.064-40.556-33.537l-86.572-8.189c.779 34.512-21.059 57.325-21.059 57.325 7.02 8.774 19.109 6.044 19.109 6.044.585 1.17 2.535 5.265.975 9.944-.585 1.755-1.365 3.12-2.145 3.9-6.435 9.749 3.705 11.699 3.705 11.699-7.8 8.384 4.094 10.919 4.094 10.919-1.755 12.284 0 18.718 3.9 22.033 7.019 6.044 18.328 3.12 31.782-.39 3.51-.975 19.108-5.265 37.242-18.134 7.604-5.459 13.454-10.919 17.353-14.818-1.755 3.315-4.484 7.604-8.384 12.089-4.095 4.679-8.384 7.799-11.699 9.749 3.51 7.409 8.579 21.253 6.824 38.411-3.509 37.242-35.487 57.325-39.776 59.86.39.195.78.585 1.17.78 27.297 20.863 54.595 41.921 81.892 62.785 10.92-8.58 21.839-16.964 32.953-25.543 7.019-12.284 10.529-23.008 12.283-30.612 4.68-18.524 3.705-34.317 2.73-49.916-1.17-17.549-3.314-25.543-2.925-25.738.975-.195 9.165 33.927 6.825 65.709-.585 7.41-2.73 17.939-9.164 28.663-2.73 4.679-5.655 7.994-7.605 10.334l66.684-50.891c-5.654-28.662-14.623-49.915-22.228-64.539-10.724-21.058-55.375-77.603-55.375-77.603 7.605 7.214 37.632 36.462 61.225 65.904"/><path fill="#2089C1" d="M255.866 245.654c15.722 0 28.467-12.484 28.467-27.883s-12.745-27.882-28.467-27.882c-15.723 0-28.468 12.483-28.468 27.882s12.745 27.883 28.468 27.883M148.04 221.866v18.523l34.122-18.523z"/><path fill="#000" stroke="#000" stroke-miterlimit="10" stroke-width=".517" d="M387.869 154.402c-2.145-46.406-21.253-85.988-54.985-114.065C301.686 14.404 260.155.17 215.699.17c-37.632 0-75.263 10.335-108.41 29.638l-5.85 3.51 55.96 66.489 4.29-3.51c21.448-17.548 47.966-27.103 75.068-27.103 15.599 0 30.612 3.12 44.846 9.36 48.746 21.448 62.2 69.803 64.54 79.163l1.169 4.679 41.142-1.95z"/><path fill="#2089C1" stroke="#2089C1" stroke-miterlimit="10" stroke-width=".517" d="M108.654 34.683C222.719-32.003 374.61 20.643 380.85 154.791c-10.335.585-20.474.975-30.808 1.56-1.56-6.24-15.013-59.86-67.659-83.063-40.946-18.133-89.692-10.919-125.764 18.523z"/></g><defs><linearGradient id="b" x1="256.58" x2="256.58" y1="499.596" y2="54.532" gradientUnits="userSpaceOnUse"><stop stop-color="#fff"/><stop offset=".059" stop-color="#A5A5A4"/><stop offset=".142" stop-color="#3F3F3E"/><stop offset=".575"/></linearGradient><linearGradient id="c" x1="256.58" x2="256.58" y1="511.394" y2="42.819" gradientUnits="userSpaceOnUse"><stop stop-color="#A2C7E1"/><stop offset=".154" stop-color="#74B0D3"/><stop offset=".299" stop-color="#469FC8"/><stop offset=".494" stop-color="#409DC7"/><stop offset=".751" stop-color="#0090BE"/><stop offset="1" stop-color="#0086B7"/></linearGradient><clipPath id="a"><path fill="#fff" d="M0 0h512v512H0z"/></clipPath></defs></svg>