<svg xmlns="http://www.w3.org/2000/svg" xml:space="preserve" width="496" height="496"><path d="M166.938 22.284c-2.283.07-4.741.913-7.53 3.115-6.83-2.636-13.453-3.55-19.376 1.813-9.146-1.185-12.118 1.262-14.37 4.12-2.008-.041-15.024-2.064-20.992 6.84-15-1.775-19.741 8.824-14.37 18.705-3.064 4.743-6.238 9.428.926 18.47-2.535 5.035-.964 10.497 5.007 17.11-1.576 7.078 1.522 12.072 7.076 15.965-1.04 9.687 8.883 15.318 11.846 17.326 1.138 5.645 3.508 10.97 14.842 13.916 1.87 8.412 8.68 9.865 15.277 11.631-21.8 12.671-40.496 29.344-40.368 70.253l-3.194 5.697c-24.996 15.2-47.485 64.059-12.318 103.772 2.297 12.43 6.15 21.36 9.58 31.24 5.13 39.822 38.614 58.467 47.444 60.671 12.943 9.855 26.725 19.209 45.376 25.76 17.582 18.135 36.63 25.045 55.782 25.033.28 0 .566.004.847 0 19.153.012 38.2-6.9 55.783-25.033 18.65-6.551 32.434-15.905 45.375-25.764 8.832-2.204 42.315-20.849 47.445-60.67 3.43-9.881 7.282-18.811 9.58-31.241 35.167-39.716 12.679-88.576-12.32-103.778l-3.197-5.696c.126-40.905-18.569-57.579-40.369-70.253 6.595-1.766 13.408-3.218 15.276-11.63 11.333-2.947 13.706-8.272 14.842-13.917 2.963-2.007 12.886-7.638 11.847-17.326 5.555-3.893 8.653-8.887 7.075-15.966 5.97-6.61 7.543-12.073 5.009-17.11 7.165-9.036 3.985-13.722.927-18.465 5.367-9.883.63-20.48-14.375-18.705-5.968-8.904-18.98-6.882-20.992-6.84-2.252-2.857-5.223-5.305-14.368-4.12-5.924-5.362-12.546-4.447-19.377-1.814-8.112-6.4-13.48-1.269-19.61.671-9.82-3.209-12.066 1.187-16.892 2.977-10.71-2.262-13.965 2.664-19.1 7.866l-5.972-.12c-16.154 9.521-24.179 28.906-27.024 38.87-2.847-9.966-10.853-29.351-27.004-38.87l-5.972.12c-5.142-5.201-8.396-10.128-19.107-7.866-4.823-1.788-7.063-6.183-16.89-2.974-4.023-1.273-7.724-3.92-12.082-3.785Z"/><path fill="#bc1142" fill-rule="evenodd" d="M300.386 349.456v-.504c-.154-26.145-23.255-47.22-51.607-47.08-28.35.13-51.218 21.44-51.065 47.584v.503c.142 26.147 23.256 47.221 51.607 47.08 28.352-.13 51.208-21.438 51.065-47.583M219.345 214.23c-21.269-13.944-51.93-4.94-68.464 20.083-16.549 25.036-12.718 56.624 8.565 70.554 21.27 13.945 51.916 4.953 68.465-20.083 16.535-25.037 12.705-56.624-8.566-70.554m57.412-2.53c-21.27 13.945-25.113 45.533-8.565 70.558 16.535 25.036 47.196 34.024 68.465 20.095 21.268-13.944 25.1-45.532 8.565-70.557-16.549-25.035-47.197-34.024-68.465-20.095M113.026 237.01c-38.102 21.76-31.486 70.181-10.927 86.716 18.69 8.295 33.897-92.869 10.927-86.716m265.41-1.264c-22.973-6.153-7.754 95.022 10.924 86.717 20.56-16.524 27.177-64.958-10.925-86.717M300.4 160.417c-14.601 2.45 69.974 76.307 71.276 59.823 1.342-42.978-31.64-66.518-71.276-59.823m-109.508-1.264c-39.636-6.695-72.604 16.857-71.277 59.836 1.303 16.47 85.878-57.386 71.277-59.836m56.932-10.022c-23.655-.62-46.355 17.554-46.407 28.092-.064 12.81 18.703 25.928 46.576 26.25 28.454.206 46.615-10.488 46.706-23.709.102-14.975-25.888-30.867-46.875-30.633m1.446 262.612c-20.497-.503-51.93 8.216-51.543 19.386-.323 7.623 24.676 29.614 50.175 28.517 24.623.426 50.06-21.539 49.723-31.253-.05-10.008-27.73-17.54-48.355-16.65m-76.178-59.293c-16.846-19.554-38.732-31.216-52.91-22.585-9.48 7.21-11.208 31.754 2.284 55.874 20.005 28.751 48.163 31.629 59.758 24.638 12.254-9.16 5.56-40.245-9.132-57.927m149.416-5.625c-15.891 18.612-24.727 52.561-13.143 63.486 11.08 8.5 40.823 7.313 62.802-23.178 15.955-20.483 10.603-54.677 1.496-63.759-13.544-10.472-32.97 2.93-51.155 23.45" clip-rule="evenodd"/><path fill="#75a928" fill-rule="evenodd" d="M134.766 64.171c33.344 11.325 63.421 26.43 88.625 47.209 29.588-13.995 9.184-49.285-5.25-63.293-.735 3.702-1.56 6.036-2.514 6.733-4.696-5.12-8.54-10.358-14.589-15.285-.026 2.89 1.432 6.037-2.167 8.333-3.25-4.437-7.636-8.397-13.466-11.75 2.813 4.913.49 6.397-1.019 8.435-4.449-3.87-8.68-7.79-16.884-10.835 2.244 2.773 5.379 5.482 2.05 8.668-4.578-2.902-9.182-5.805-20.07-7.868 2.45 2.773 7.534 5.546 4.45 8.332-5.753-2.231-12.112-3.856-19.155-4.798 3.367 2.825 6.179 5.572 3.419 7.752-6.154-1.922-14.627-4.502-22.921-2.27l5.25 5.353c.58.722-12.28.554-20.754.683 3.096 4.373 6.243 8.578 8.087 16.085-.838.864-5.043.374-9.003 0 4.063 8.68 11.119 10.873 12.77 14.588-2.49 1.909-5.934 1.419-9.7.116 2.928 6.127 9.068 10.319 13.918 15.284-1.226.879-3.367 1.408-8.436.8 4.476 4.824 9.893 9.248 16.304 13.221-1.135 1.341-5.044 1.277-8.668 1.369 5.817 5.777 13.285 8.77 20.302 12.548-3.496 2.425-5.998 1.858-8.668 1.82 4.952 4.14 13.389 6.294 21.205 8.783-1.482 2.347-2.966 2.992-6.154 3.65 8.281 4.657 20.149 2.528 23.49 4.903-.8 2.335-3.084 3.855-5.817 5.132 13.337.787 49.8-.49 56.79-28.507-13.645-15.231-38.565-33.096-81.425-55.19m227.41 0c-42.847 22.095-67.766 39.96-81.413 55.193 6.991 28.016 43.454 29.293 56.79 28.506-2.732-1.276-5.016-2.798-5.817-5.132 3.341-2.374 15.209-.245 23.49-4.903-3.187-.657-4.67-1.302-6.154-3.65 7.818-2.49 16.255-4.643 21.206-8.784-2.67.04-5.172.607-8.669-1.818 7.016-3.78 14.485-6.772 20.302-12.55-3.625-.09-7.532-.026-8.669-1.368 6.412-3.972 11.828-8.397 16.305-13.22-5.069.607-7.21.078-8.434-.8 4.85-4.967 10.99-9.158 13.916-15.285-3.766 1.303-7.21 1.793-9.7-.116 1.65-3.715 8.707-5.908 12.77-14.588-3.96.374-8.165.864-9.003 0 1.844-7.507 5.003-11.725 8.099-16.084-8.487-.13-21.346.038-20.767-.684l5.25-5.366c-8.28-2.231-16.768.361-22.92 2.283-2.762-2.18.05-4.94 3.415-7.752-7.041.942-13.4 2.554-19.154 4.786-3.069-2.774 2-5.547 4.451-8.32-10.888 2.064-15.494 4.966-20.071 7.868-3.328-3.186-.194-5.895 2.05-8.668-8.202 3.044-12.435 6.965-16.883 10.835-1.51-2.038-3.833-3.534-1.02-8.436-5.83 3.354-10.216 7.314-13.454 11.738-3.61-2.296-2.154-5.43-2.167-8.32-6.06 4.928-9.906 10.164-14.6 15.285-.942-.696-1.78-3.031-2.515-6.733-14.432 14.008-34.838 49.3-5.238 63.293 25.183-20.78 55.262-35.885 88.605-47.21" clip-rule="evenodd"/></svg>