<svg xmlns="http://www.w3.org/2000/svg" width="496" height="496"><path d="M324.79 274.543c30.214 0 73.93-6.231 73.93-42.17a33.8 33.8 0 0 0-.75-8.26l-17.993-78.154c-4.154-17.196-7.8-24.997-37.99-40.092-23.428-11.98-74.46-31.76-89.555-31.76-14.056 0-18.138 18.114-34.9 18.114-16.133 0-28.112-13.525-43.207-13.525-14.491 0-23.934 9.878-31.228 30.19 0 0-20.312 57.288-22.92 65.596a15.5 15.5 0 0 0-.532 4.685c0 22.268 87.671 95.28 205.146 95.28m78.565-27.486c4.179 19.78 4.179 21.858 4.179 24.466 0 33.813-38.015 52.579-87.985 52.579-112.934.072-211.86-66.104-211.86-109.843a44.6 44.6 0 0 1 3.647-17.703c-40.623 2.029-93.201 9.274-93.201 55.694 0 76.03 180.148 169.739 322.788 169.739 109.36 0 136.94-49.463 136.94-88.516 0-30.722-26.566-65.597-74.46-86.416" class="cls-1" style="fill:#ccc;fill-opacity:1;stroke-width:2.41518"/></svg>