<svg xmlns="http://www.w3.org/2000/svg" width="496" height="496" viewBox="0 0 42.333 42.333"><path fill="#ccc" d="M373.91-304.93a20.1 20.1 0 0 0-5.888 14.215 20.103 20.103 0 0 0 20.103 20.103 20.103 20.103 0 0 0 20.103-20.103 20.103 20.103 0 0 0-20.103-20.103 20.1 20.1 0 0 0-14.215 5.888m3.458 3.458h6.301l4.457-4.457 4.456 4.457h6.3v6.301l4.457 4.456-4.456 4.456v6.302h-6.301l-4.457 4.456-4.456-4.456h-6.301v-6.302l-4.456-4.456 4.456-4.456zm2.27 4.183 3.228 3.227h1.913v-1.912l-3.228-3.228zm-2.162 5.222v2.704h4.564l1.353-1.352-1.353-1.352zm9.297-9.298v4.565l1.352 1.352 1.353-1.352v-4.565zm.091 7.607.016 1.799-1.798-.016 1.283 1.26-1.283 1.261 1.799-.016-.015 1.798 1.26-1.283 1.26 1.283-.016-1.798 1.799.015-1.284-1.26 1.283-1.26-1.798.015.015-1.798-1.26 1.283zm-7.225 9.617 1.912 1.913 3.228-3.228v-1.912h-1.913zm11.833-11.833v1.913h1.912l3.228-3.228-1.913-1.912zm-4.699 11.345v4.564h2.704v-4.564l-1.352-1.352zm6.085-6.085 1.352 1.352h4.565v-2.705h-4.564zm-1.386 3.347v1.912l3.227 3.227 1.913-1.912-3.228-3.228z" style="paint-order:fill markers stroke" transform="rotate(45 -180.13 -610.208)scale(1.0529)"/></svg>