<svg xmlns="http://www.w3.org/2000/svg" xml:space="preserve" width="496" height="496" version="1"><g transform="translate(-500.888 105.667)scale(.9557)"><circle cx="776.076" cy="156.337" r="240.774" style="fill:#4c5263;fill-opacity:1;stroke:none;stroke-width:11.2863;stroke-miterlimit:4;stroke-dasharray:none;stroke-opacity:1"/><path d="M689.548-99.485c-36.232 118.35-89.791 230.98-150.484 338.588l-3.762 7.524 5.8 2.99c5.09 2.363 11.793 3.952 20.867 5.767s20.236 3.624 32.779 5.416c25.086 3.583 55.672 7.086 85.345 10.169 59.346 6.166 115.052 10.662 115.052 10.662l9.48.764-.728-9.486S789.198 81.682 786.453 50.262l-.147-1.697-.823-1.5c-17.395-27.778-84.963-143.278-95.935-146.55m7.524 33.859c25.687 45.19 47.88 70.811 75.242 120.387 2.73 31.594 13.48 194.721 14.639 209.793-8.117-.663-50.969-4.11-105.185-9.743-29.556-3.07-60-6.557-84.72-10.089-12.36-1.765-23.296-3.55-31.89-5.268-4.24-.848-4.333-3.314-7.284-4.113 44.328-78.321 114.74-201.15 139.198-300.967" style="color:#000;font-style:normal;font-variant:normal;font-weight:400;font-stretch:normal;font-size:medium;line-height:normal;font-family:sans-serif;text-indent:0;text-align:start;text-decoration:none;text-decoration-line:none;text-decoration-style:solid;text-decoration-color:#000;letter-spacing:normal;word-spacing:normal;text-transform:none;writing-mode:lr-tb;direction:ltr;baseline-shift:baseline;text-anchor:start;white-space:normal;clip-rule:nonzero;display:inline;overflow:visible;visibility:visible;isolation:auto;mix-blend-mode:normal;color-interpolation:sRGB;color-interpolation-filters:linearRGB;solid-color:#000;solid-opacity:1;fill:#4c5263;fill-opacity:1;fill-rule:evenodd;stroke:none;stroke-width:16.245;stroke-linecap:butt;stroke-linejoin:miter;stroke-miterlimit:4;stroke-dasharray:none;stroke-dashoffset:0;stroke-opacity:1;color-rendering:auto;image-rendering:auto;shape-rendering:auto;text-rendering:auto"/><path d="M1011.743 205.812c-35.16 47.432-100.106 72.781-177.479 84.023-80.724 11.729-174.328 8.244-257.85 1.11 4.001 5.975 8.392 11.769 12.91 17.363 80.403 6.374 168.986 8.98 247.277-2.396 65.296-9.487 124.298-28.735 164.776-64.507 4.417-11.5 8.049-24.24 10.366-35.593" style="color:#000;font-style:normal;font-variant:normal;font-weight:400;font-stretch:normal;font-size:medium;line-height:normal;font-family:sans-serif;text-indent:0;text-align:start;text-decoration:none;text-decoration-line:none;text-decoration-style:solid;text-decoration-color:#000;letter-spacing:normal;word-spacing:normal;text-transform:none;writing-mode:lr-tb;direction:ltr;baseline-shift:baseline;text-anchor:start;white-space:normal;clip-rule:nonzero;display:inline;overflow:visible;visibility:visible;isolation:auto;mix-blend-mode:normal;color-interpolation:sRGB;color-interpolation-filters:linearRGB;solid-color:#000;solid-opacity:1;fill:#fff;fill-opacity:1;fill-rule:evenodd;stroke:none;stroke-width:16.245;stroke-linecap:butt;stroke-linejoin:miter;stroke-miterlimit:4;stroke-dasharray:none;stroke-dashoffset:0;stroke-opacity:1;color-rendering:auto;image-rendering:auto;shape-rendering:auto;text-rendering:auto"/><path d="m817.459 77.333-3.87 16.928c37.803 25.286 73.83 47.364 97.226 70.84s34.36 46.58 25.468 78.93l-4.144 15.1 14.732-5.305c46.031-16.562 67.903-48.655 81.265-74.916l3.762-7.524-7.524-7.525c-22.434-23.625-57.086-39.283-97.29-53.538-40.206-14.254-83.994-26.81-109.625-32.99m44.905 29.911c18.71 5.143 39.093 11.232 59.29 18.392 36.644 12.992 71.338 29.698 90.943 47.754-11.21 20.672-28.306 44.515-57.798 59.333 3.162-30.931-10.467-56.999-32.477-79.084-16.247-16.302-37.463-31.32-59.958-46.395" style="color:#000;font-style:normal;font-variant:normal;font-weight:400;font-stretch:normal;font-size:medium;line-height:normal;font-family:sans-serif;text-indent:0;text-align:start;text-decoration:none;text-decoration-line:none;text-decoration-style:solid;text-decoration-color:#000;letter-spacing:normal;word-spacing:normal;text-transform:none;writing-mode:lr-tb;direction:ltr;baseline-shift:baseline;text-anchor:start;white-space:normal;clip-rule:nonzero;display:inline;overflow:visible;visibility:visible;isolation:auto;mix-blend-mode:normal;color-interpolation:sRGB;color-interpolation-filters:linearRGB;solid-color:#000;solid-opacity:1;fill:#4c5263;fill-opacity:1;fill-rule:evenodd;stroke:none;stroke-width:16.245;stroke-linecap:butt;stroke-linejoin:miter;stroke-miterlimit:4;stroke-dasharray:none;stroke-dashoffset:0;stroke-opacity:1;color-rendering:auto;image-rendering:auto;shape-rendering:auto;text-rendering:auto"/><circle cx="776.358" cy="156.055" r="241.056" fill="none" style="fill:#500000;fill-opacity:0;stroke:none;stroke-width:11.2863;stroke-miterlimit:4;stroke-dasharray:none;stroke-opacity:1"/><path d="M836.586 305.905c-81.817 11.545-165.156 8.682-247.261 2.403 52.836 67.38 144.664 101.336 229.487 84.97 81.864-14.071 153.62-74.022 182.524-151.802-48.613 34.484-106.048 55.413-164.75 64.429" style="fill:#5294e2;fill-opacity:1;stroke:none;stroke-width:11.2863;stroke-miterlimit:4;stroke-dasharray:none;stroke-opacity:1"/><path d="M791.124 62.285c36.261 74.698 36.294 148.6 15.049 203.153 29.915.18 78.731 3.535 131.673-22.573-43.514-99.355-146.722-180.58-146.722-180.58" style="fill:#fff;fill-opacity:1;fill-rule:evenodd;stroke:none;stroke-width:3.76209px;stroke-linecap:butt;stroke-linejoin:miter;stroke-opacity:1"/><path d="M697.072-65.626c-24.46 99.816-94.87 222.647-139.198 300.967l39.181 9.389c24.721 3.531 55.164 7.018 84.72 10.088 54.213 5.633 97.465 9.956 105.587 10.62-1.16-15.082-12.318-179.075-15.048-210.677-27.363-49.576-49.555-75.198-75.242-120.387M862.604 107.43c22.502 15.078 43.943 28.839 60.193 45.145 22.009 22.084 33.257 51.837 30.097 82.766 29.489-14.817 48.983-39.523 60.194-60.193-19.606-18.055-53.648-35.916-90.29-48.908-20.205-7.163-41.477-13.667-60.194-18.81" style="fill:#fff;fill-opacity:1;fill-rule:evenodd;stroke:none;stroke-width:16.245;stroke-linecap:butt;stroke-linejoin:miter;stroke-miterlimit:4;stroke-dasharray:none;stroke-opacity:1"/></g></svg>