<svg xmlns="http://www.w3.org/2000/svg" xml:space="preserve" width="496" height="496"><path d="M248 467.332A219.33 219.33 0 0 0 467.332 248 219.33 219.33 0 0 0 248 28.668 219.33 219.33 0 0 0 28.668 248 219.33 219.33 0 0 0 248 467.332" style="opacity:1;fill:#2686f1;fill-opacity:1;stroke-width:27.4163;stroke:none;stroke-opacity:1"/><path fill="#fff" d="M263.129 130.24s-38.321-2.55-103.578 17.869c-66.503 20.808-104.22 50.303-104.22 50.303s99.12-55.343 210.999-58.488zm142.934 60.172 4.982-.326s-28.542-34.63-83.175-51.5c30.71 12.484 57.44 29.024 78.192 51.823zm8.154 14.388c.766-1.328 3.238 4.22 5.116 6.55.08.465.212.749-.877.525-.092-.478-.25-.617-.25-.617s-2.628-1.564-3.433-2.673c-.807-1.109-.95-3.049-.557-3.785zm67.047 164.85s6.059-69.565-103.237-85.603c-13.853-2.033-31.371-3.597-49.09-3.642-87.6 1.158-90.794-101.034-24.784-106.193 27.356-2.258 60.022 12.5 91.956 27.371-.119 3.966.046 7.49 2.651 10.747s12.611 6.808 15.809 8.643 13.44 8.347 19.717 16.518c1.361-2.547 12.729-9.946 12.729-9.946s-2.723.06-9.059-2.309c-6.336-2.368-13.855-9.532-14.032-9.946-.178-.414-.296-1.065 1.185-1.361 1.124-.947-1.422-4.026-2.547-5.15s-8.645-13.912-8.822-14.208c-.177-.297-.237-.592-.77-.948-1.658-.533-8.94.77-8.94.77s-11.2-5.501-15.061-17.361c.056 2.077-1.92 4.345 0 9.118-5.84-2.47-10.856-6.684-14.812-17.096-2.355 5.922 0 9.688 0 9.688s-13.752-3.843-15.952-16.525c-2.415 5.693 0 9.117 0 9.117s-22.418-11.697-59.67-11.867c-24.939-2.288-30.13-46.16-27.82-53.545 0 0-35.972-18.958-106.783-27.334-70.81-8.377-128.885-1.262-128.885-1.262s125.414-6.02 225.885 34.657c3.415 15.276 13.69 40.719 19.224 52.948-15.835 10.948-33.691 21.243-36.472 57.756-2.78 36.511 28.612 68.626 67.539 69.617 36.963 1.97 62.502 2.249 93.457 18.297 29.547 16.338 53.774 66.12 56.172 110.892 2.59-33.22-9.877-104.655-68.049-126.345 81.307 14.229 88.46 74.503 88.46 74.503zm-220.05-244.865-2.926-9.437s-48.273-8.572-113.177-3.959c-64.904 4.614-130.435 27.333-130.435 27.333s134.086-33.739 246.535-13.938" style="stroke-width:3.75256"/></svg>