<svg xmlns="http://www.w3.org/2000/svg" width="64" height="64"><g transform="translate(0 -1.773)scale(.0625)"><rect width="20" height="60" x="864" y="595.362" fill="none" ry="10" style="fill:#8b9299;fill-opacity:0;stroke:none"/><path d="M1023.407 168.604c-4.877-14.542-20.215-40.643-33.983-58.014-13.799-17.392-36.26-37.976-49.903-45.743-13.653-7.8-76.071 9.26-107.642 23.698l-23.043 10.518a89051 89051 0 0 0-58.373 26.73c-.514.27-4.227 0-7.107-1.19-2.89-1.243-38.017-9.89-71.839-17.798l-60.551-14.147c-33.832-7.908-72.822-15.442-86.673-16.747-13.861-1.316-72.972 8.584-106.794 16.346l-64.82 14.896c-33.842 7.758-63.884 14.819-66.722 15.682-2.87.842-10.857 3.753-11.397 3.462-.536-.306-27.822-12.79-59.382-27.239L192.161 88.54C160.565 74.1 121.6 61.332 105.545 60.152s-57.15 33.041-70.934 50.433c-13.82 17.366-29.116 43.492-34.019 58.03-4.903 14.542 21.692 71.833 41.127 100.612l39.722 58.918c19.404 28.778 30.104 62.049 23.73 73.908-6.359 11.907-15.052 33.053-19.336 47.013-4.29 13.986.665 75.296 6.452 109.534l12.41 73.076c5.798 34.232 16.69 73.695 24.199 87.697 7.528 14.012 67.076 38.745 100.794 47.095l15.083 3.739c33.68 8.355 77.88 38.24 98.184 66.4l27.228 37.674c20.293 28.17 46.784 59.085 58.857 68.714 12.026 9.624 62.917 17.501 82.97 17.501 20.09 0 48.635-3.39 63.5-7.528 14.849-4.134 58.024-50.512 78.317-78.687l26.782-37.086c20.313-28.134 64.466-58.098 98.157-66.557l15.702-3.946c33.671-8.46 72.177-22.388 85.545-30.952 13.378-8.573 33.52-69.837 39.333-104.07l12.384-73.06c5.782-34.253 10.212-74.2 9.837-88.835-.369-14.6-16.351-55.82-22.72-67.727-6.354-11.865 4.336-45.13 23.734-73.908l39.723-58.919c19.414-28.767 46.009-86.059 41.1-100.617M79.268 235.5c-17.277-25.591-32.126-48.453-33.031-50.756v-5.974c1.326-3.031 13.72-19.71 27.51-37.092 13.82-17.366 27.317-32.636 30.015-33.952 2.688-1.3 36.026 11.876 67.602 26.283l4.934 2.267c31.575 14.433 56.948 26.974 56.392 27.873-.567.9-15.328 28.31-31.706 58.94l-27.77 51.884c-16.377 30.624-76.674-13.856-93.946-39.473m813.017 237.104c.38 8.464-4.07 43.414-9.858 77.662l-12.41 73.082c-5.787 34.216-12.624 65.755-15.224 70.045-2.537 4.284-31.784 14.605-56.865 20.912-25.113 6.306-44.808 7.341-43.846 2.34.962-5.039-13.586-40.29-32.345-67.613-18.79-27.301-34.139-48.863-34.113-47.911.026.946 4.306 23.376 9.11 47.677 4.788 24.333 8.277 50.304 7.762 57.723-.53 7.425-9 24.614-11.76 28.472-2.787 3.852-15.276 21.166-27.79 38.47-12.52 17.313-37.535 52.034-55.665 77.136-18.104 25.092-37.232 48.869-42.515 52.779-5.277 3.904-34.68 7.128-54.77 7.128-20.048 0-41.599-1.627-47.87-3.619-6.239-1.98-31.455-31.383-49.741-56.73a183216 183216 0 0 1-55.893-77.47c-12.463-17.256-24.785-34.356-27.463-38.027-2.62-3.666-6.946-12.37-9.577-19.32-2.615-6.968 1.056-42.209 5.829-66.542 4.793-24.301 8.813-44.974 8.948-45.956.14-.973-15.136 18.884-33.92 46.196-18.791 27.327-33.864 53.683-33.526 58.585.323 4.909-17.683 12.656-42.743 6.432-25.056-6.213-48.9-13.669-52.966-16.534-4.06-2.865-13.284-39.951-19.097-74.168l-12.38-73.082c-5.802-34.248-10.237-69.197-9.863-77.662.38-8.5 9.708-32.35 14.304-40.892 4.565-8.559 21.738-40.623 38.121-71.236l60.91-113.808c16.373-30.598 33.894-59.886 38.933-65.1 5.043-5.2 18.868-11.673 19.502-11.819.655-.145 28.84-6.629 62.688-14.381l62.517-14.366c33.816-7.773 69.468-14.76 79.19-15.54 9.729-.775 57.853 7.99 91.68 15.889l58.305 13.617c33.817 7.908 61.992 14.5 62.6 14.656.619.13 6.328 3.136 12.676 6.656 6.359 3.525 29.418 39.78 45.8 70.383l60.916 113.808c16.367 30.608 33.551 62.672 38.121 71.235 4.586 8.543 13.935 32.392 14.288 40.893m85.508-287.86c-.905 2.303-15.79 25.165-33.042 50.756-17.25 25.617-77.547 70.097-93.915 39.473l-27.79-51.884c-16.404-30.63-30.213-56.413-30.718-57.312-.535-.895 23.84-15.068 55.415-29.501l4.913-2.267c31.56-14.407 60.338-26.283 63.93-26.392 3.593-.078 19.883 16.695 33.687 34.06 13.768 17.382 26.184 34.062 27.52 37.093z" style="stroke-width:5.19932"/><path d="M423.775 650.7c-7.45-14.922.083-27.166 16.799-27.166H583.44c16.69 0 24.244 12.244 16.804 27.166l-74.662 84.88c-7.472 14.932-19.654 14.932-27.146 0z" style="stroke-width:5.19932"/><path d="M512.007 832.728c.021 0 10.087 9.23 22.425 20.501l48.515 44.34c12.358 11.246 25.84 12.374 29.968 2.46 4.134-9.91-3.748-25.696-17.552-35.112l-45.952-31.341c-13.799-9.416-25.055-17.423-25.003-17.797.041-.354.104-15.058.104-31.763V698.43c0-16.705-2.517-36.005-5.6-42.879h-13.799c-3.083 6.874-5.6 26.168-5.6 42.88v85.585c0 16.705.031 30.692.047 31.087.036.364-11.137 9.057-24.946 18.473l-45.952 31.341c-13.794 9.416-21.712 25.201-17.558 35.111 4.16 9.92 17.61 8.787 29.964-2.459l48.525-44.34c12.338-11.272 22.414-20.5 22.414-20.5" style="stroke-width:5.19932"/><path d="M246.25 426.157c-17.954.52-18.094 3.006-.328 5.548l148.997 21.276c17.745 2.542 30.925 19.216 29.256 37.055l-19.019 66.5c-1.607 17.838 3.962 32.948 12.458 33.572 8.495.623 15.494.54 15.546-.188.026-.712.727-15.951 1.476-33.863l15.562-62.412c.78-17.917 1.793-41.735 2.277-52.935.515-11.199-4.227-20.235-10.497-20.048-6.27.182-26.075.723-44.002 1.232zm379.81-4.257c-17.933-.51-37.742-1.051-43.976-1.233-6.302-.187-11.044 8.85-10.565 20.049.483 11.199 1.528 35.017 2.298 52.934l15.546 62.412c.78 17.907 1.45 33.146 1.533 33.864.032.727 7.02.805 15.51.187 8.5-.619 14.09-15.728 12.426-33.572l-18.988-66.5c-1.648-17.838 11.522-34.513 29.257-37.055l148.997-21.276c17.735-2.542 17.63-5.027-.323-5.547z"/><g transform="translate(-1037.384 -846.38)scale(5.19932)"><circle cx="268.666" cy="249.082" r="3.974"/><path d="M331.314 249.082a3.98 3.98 0 0 1-7.959 0 3.974 3.974 0 0 1 3.98-3.974 3.98 3.98 0 0 1 3.979 3.974"/></g><path d="M282.442 299.431c-22.72 6.003-41.634 16.871-60.114 31.306" style="fill:none" transform="translate(-1037.384 -846.38)scale(5.19932)"/><path d="M429.863 703.297c-113.76 27.514-228.01 87.02-315.27 165.234-6.053 5.418 1.502 13.72 7.965 9.395 47.625-31.846 93.41-65.511 143.766-93.146 52.716-28.929 108.567-49.94 166.06-67.16 8.767-2.625 6.744-16.564-2.52-14.323"/><path d="M282.968 306.988c-16.705 1.636-33.563 20.751-43.912 33.257" style="fill:none" transform="translate(-1037.384 -846.38)scale(5.19932)"/><path d="M432.827 743.924c-49.103 3.76-90.63 31.83-127.576 62.475-38.886 32.257-75.925 71.205-104.038 113.23-3.245 4.852 3.333 11.398 7.752 7.067 66.593-65.262 127.295-154.061 225.916-171.125 7.653-1.321 5.407-12.224-2.054-11.647"/><path d="M284.562 314.588c-16.175 4.496-29.483 26.229-37.521 40.328" style="fill:none" transform="translate(-1037.384 -846.38)scale(5.19932)"/><path d="M441.114 783.434c-46.102 11.703-80.802 43.757-111.483 78.686-35.033 39.884-65.772 86.574-87.53 134.98-2.517 5.604 5.895 9.66 9.29 4.871 53.907-76.034 99.219-173.74 193.29-207.364 6.281-2.246 2.865-12.806-3.567-11.173"/><path d="M313.56 299.431c22.718 6.003 41.628 16.871 60.104 31.306" style="fill:none" transform="translate(-1037.384 -846.38)scale(5.19932)"/><path d="M590.387 717.278c57.608 17.261 113.038 38.37 166.123 66.81 51.167 27.406 97.253 62.029 145.368 94.181 6.785 4.534 12.837-4.924 7.066-10.086-86.652-77.595-200.538-137.205-313.514-164.543-8.901-2.158-14.178 10.903-5.043 13.638"/><path d="M313.03 306.988c16.707 1.636 33.564 20.751 43.913 33.257" style="fill:none" transform="translate(-1037.384 -846.38)scale(5.19932)"/><path d="M589.602 755.638c98.074 16.955 158.63 105.53 224.844 170.444 4.919 4.825 11.85-1.19 8.064-6.842-28.476-42.51-65.553-80.049-104.319-113.288-36.192-31.035-78.915-58.383-127.471-62.09-7.706-.593-8.548 10.492-1.118 11.776"/><path d="M311.435 314.588c16.172 4.496 29.49 26.229 37.524 40.328" style="fill:none" transform="translate(-1037.384 -846.38)scale(5.19932)"/><path d="M579.811 794.81c93.827 33.572 139.41 131.698 193.124 207.551 3.567 5.033 11.189-.39 8.807-5.693-20.885-46.508-50.516-90.026-82.877-129.333-30.28-36.775-67.716-71.626-114.946-83.62-7.238-1.841-11.433 8.474-4.108 11.095"/><g transform="translate(-1037.384 -846.38)scale(5.19932)"><ellipse cx="260.37" cy="205.962" rx="6.425" ry="8.03"/><path d="M258.13 221.388a5.35 5.35 0 0 1-5.349 5.353 5.353 5.353 0 1 1 0-10.706 5.353 5.353 0 0 1 5.349 5.353m24.389-17.446c-1.077 3.381-3.318 5.69-5.011 5.152-1.688-.539-2.19-3.713-1.111-7.096 1.072-3.382 3.314-5.688 5.003-5.148 1.691.537 2.191 3.716 1.119 7.092m-8.087 19.096c0 1.778-1.674 3.214-3.748 3.214-2.069 0-3.746-1.436-3.746-3.214 0-1.774 1.676-3.211 3.746-3.211 2.074 0 3.748 1.437 3.748 3.211"/></g><path d="M800.158 632.009c-6.857 13.757-1.289 30.457 12.479 37.32 13.757 6.869 30.468 1.285 37.326-12.467 6.863-13.773 1.258-30.5-12.484-37.326-13.742-6.89-30.463-1.29-37.32 12.473m6.509-71.106c-2.839 18.229 2.23 34.17 11.33 35.59 9.145 1.413 18.81-12.198 21.69-30.417 2.84-18.229-2.23-34.164-11.375-35.573-9.089-1.435-18.801 12.176-21.645 30.4m-51.213 42.333c-4.129 8.256.348 18.847 9.967 23.641 9.64 4.81 20.797 2.012 24.889-6.24 4.139-8.256-.343-18.841-9.962-23.635-9.624-4.815-20.792-2.012-24.894 6.234"/></g></svg>