<svg xmlns="http://www.w3.org/2000/svg" width="496" height="496" viewBox="0 0 131.233 131.233"><path d="M-127-42.3c4.57 6.45 23.8 31.4 10.7 36.6-6.12 2.81-34-1.65-33.6-.921-2 3.28-3.59 5.92-3.59 5.92s21.5.967 38.1-1.27c23.7-3.18-4.88-33.5-11.6-40.3z" style="fill:#7f7fff;stroke-width:.585" transform="matrix(2.48315 0 0 2.34103 391.574 112.66)"/><path d="M-127-42.3c-1.52.209-29.4 34.5-29.4 34.5s2.01.57 6.58 1.23c1.48-1.15 22.3-36.2 22.9-35.7q-.016-.022-.052-.016z" style="fill:#ff7f7f;stroke-width:.585" transform="matrix(2.48315 0 0 2.34103 391.574 112.66)"/><path d="M-127-42.3c-.96-.156-22.9 35.7-22.9 35.7s19.9 2.1 28.1 1.96c23.1-.39.176-30.6-5.16-37.7a.04.04 0 0 0-.025-.012z" style="fill:#7f3fbf;stroke-width:.585" transform="matrix(2.48315 0 0 2.34103 391.574 112.66)"/></svg>